<svg width="300" height="300" shape-rendering="crispEdges" version="1.1" viewBox="0 0 79.376 79.376" xmlns="http://www.w3.org/2000/svg" xmlns:xlink="http://www.w3.org/1999/xlink"><g fill="#b1b3b4" fill-rule="evenodd"><path d="m9.6433 59.341v4.2037h2.3626v3.2388h-2.3626v3.9375c0 0.44367 0.088736 0.78751 0.17747 0.96498 0.17747 0.17747 0.35494 0.35493 0.6988 0.35493a5.4351 5.4349 0 0 0 1.3976-0.2662l0.26621 2.9726a11.979 11.979 0 0 1-2.9727 0.35493c-1.0537 0-1.8413-0.08873-2.3626-0.35493-0.44368-0.2662-0.87627-0.78751-1.0537-1.3976-0.26621-0.52131-0.34385-1.3976-0.34385-2.7175v-3.8488h-1.5751v-3.2388h1.5751v-2.0076zm2.7064 9.8827a5.7678 5.7677 0 0 1 1.7525-4.1927c1.1425-1.2201 2.7175-1.7525 4.6365-1.7525 2.1851 0 3.9377 0.69878 5.0801 2.0076a5.8788 5.8786 0 0 1 1.3089 3.8488c0 1.7525-0.52132 3.15-1.6638 4.2925-1.1425 1.1424-2.7064 1.6638-4.7252 1.6638-1.8413 0-3.2389-0.44367-4.3813-1.3976a5.6569 5.6568 0 0 1-2.0077-4.4589zm4.2926 0c0 0.96498 0.17747 1.7525 0.61006 2.1851 0.34385 0.52131 0.87627 0.69878 1.4863 0.69878s1.1314-0.17747 1.5751-0.69878c0.34385-0.44367 0.52132-1.2201 0.52132-2.2738 0-0.96498-0.17747-1.6638-0.52132-2.0963-0.44368-0.52131-0.965-0.69878-1.4863-0.69878-0.6988 0-1.1314 0.17747-1.5751 0.69878-0.44368 0.44367-0.61006 1.2201-0.61006 2.1851zm17.148-5.69h4.0264v11.203a5.1023 5.1022 0 0 1-0.44368 2.0076 4.104 4.1039 0 0 1-1.2201 1.4863c-0.44368 0.44367-1.1425 0.69878-1.8413 0.87624a11.979 11.979 0 0 1-2.6288 0.2662c-2.2739 0-3.7602-0.35493-4.6365-0.96498a3.4385 3.4384 0 0 1-1.2201-2.7175v-0.61004l4.1151 0.52131a3.2167 3.2166 0 0 0 0.52132 0.78751c0.34385 0.17747 0.6988 0.34384 1.2201 0.34384 0.61006 0 1.0537-0.17747 1.3089-0.52131 0.35494-0.34384 0.52132-0.87624 0.52132-1.7525v-1.7525a3.4385 3.4384 0 0 1-1.3089 1.0537 4.104 4.1039 0 0 1-2.0964 0.5324 4.3259 4.3258 0 0 1-3.6715-1.93 6.7661 6.7659 0 0 1-0.965-3.6713c0-1.7525 0.44368-3.0613 1.3199-3.9375 0.78753-1.0537 1.9189-1.4863 3.2389-1.4863a5.1023 5.1022 0 0 1 2.1851 0.44367c0.52132 0.2662 1.0537 0.87624 1.5751 1.575zm-4.0264 5.5126c0 0.78751 0.17747 1.3976 0.52132 1.7525 0.35494 0.43258 0.78753 0.61004 1.3199 0.61004s1.0537-0.17747 1.3976-0.61004c0.34385-0.43258 0.52132-1.0537 0.52132-1.8412 0-0.78751-0.17747-1.3976-0.61006-1.8412a1.5529 1.5528 0 0 0-1.3089-0.61004c-0.61006 0-1.0537 0.17747-1.3199 0.52131-0.34385 0.44367-0.52132 1.0537-0.52132 2.0076zm17.503-5.5126h4.0264v11.203a5.1023 5.1022 0 0 1-0.44368 2.0076c-0.35494 0.61004-0.6988 1.1424-1.2201 1.4863-0.52132 0.44367-1.1425 0.69878-1.93 0.87624a10.87 10.87 0 0 1-2.5401 0.2662c-2.2739 0-3.8489-0.35493-4.6365-0.96498-0.87627-0.69878-1.3089-1.575-1.3089-2.7175v-0.61004l4.1928 0.52131a1.331 1.331 0 0 0 0.52132 0.78751c0.25512 0.17747 0.6988 0.34384 1.1425 0.34384 0.61006 0 1.1314-0.17747 1.3976-0.52131 0.35494-0.34384 0.44368-0.87624 0.44368-1.7525v-1.7525c-0.44368 0.52131-0.78753 0.87624-1.2201 1.0537-0.6988 0.35493-1.3976 0.5324-2.0964 0.5324a4.215 4.2148 0 0 1-3.6715-1.93 6.1006 6.1004 0 0 1-1.0537-3.6713c0-1.7525 0.52132-3.0613 1.3199-3.9375a4.104 4.1039 0 0 1 3.3276-1.4863 5.3242 5.324 0 0 1 2.1851 0.44367c0.52132 0.2662 1.0537 0.87624 1.5751 1.575zm-4.0264 5.5126c0 0.78751 0.17747 1.3976 0.52132 1.7525 0.34385 0.43258 0.78753 0.61004 1.3089 0.61004s0.965-0.17747 1.3089-0.61004c0.44368-0.44367 0.61006-1.0537 0.61006-1.8412a2.8839 2.8838 0 0 0-0.61006-1.8412c-0.34385-0.44367-0.78753-0.61004-1.3976-0.61004a1.7747 1.7747 0 0 0-1.3199 0.52131c-0.26621 0.44367-0.43259 1.0537-0.43259 2.0076zm21.785 1.2201h-8.5741c0.08874 0.69878 0.26621 1.1314 0.52132 1.4863 0.44368 0.52131 0.965 0.78751 1.6638 0.78751 0.43259 0 0.78753-0.17747 1.1314-0.35493a2.773 2.7729 0 0 0 0.78753-0.69878l4.2039 0.35493c-0.61006 1.1314-1.3976 1.9189-2.2739 2.4513-0.965 0.61004-2.2739 0.78751-3.9377 0.78751-1.4863 0-2.6288-0.17747-3.5051-0.61004-0.87627-0.52131-1.5751-1.1314-2.0964-2.0963-0.61006-0.87624-0.87627-1.93-0.87627-3.15 0-1.7525 0.61006-3.15 1.6638-4.1927 1.1425-1.2201 2.7175-1.7525 4.6365-1.7525 1.6638 0 2.8839 0.2662 3.7602 0.69878a6.5443 6.5441 0 0 1 2.1851 2.1851 8.4299 8.4297 0 0 1 0.6988 3.5937zm-4.3702-2.1074c-0.08874-0.78751-0.26621-1.3976-0.61006-1.7525a2.2184 2.2183 0 0 0-1.4863-0.52131 1.8856 1.8856 0 0 0-1.5751 0.78751c-0.26621 0.35493-0.44368 0.87624-0.52132 1.4863zm5.1578-4.6363h4.0264v1.93a4.6586 4.6585 0 0 1 1.2201-1.7525c0.34385-0.2662 0.87627-0.44367 1.4863-0.44367s1.3089 0.17747 2.0964 0.61004l-1.3976 3.15c-0.44368-0.2662-0.87627-0.35493-1.1425-0.35493-0.61006 0-1.0537 0.2662-1.3089 0.69878-0.44368 0.61004-0.6988 1.8412-0.6988 3.6713v3.7601h-4.2926zm7.2431-8.9177c0 0.6655-0.16638 1.0981-0.49914 1.3754s-0.87627 0.38821-1.7082 0.38821h-3.1945v0.22183c0 0.27729-0.05546 0.44367-0.11092 0.55458-0.11092 0.11092-0.2773 0.16638-0.44368 0.16638s-0.33276-0.05546-0.44368-0.16638c-0.11092-0.11092-0.16638-0.33275-0.16638-0.55458v-0.22183h-0.98719c-0.49914 0-0.82081-0.05546-1.0426-0.16638-0.22184-0.11092-0.33276-0.33275-0.33276-0.59895s0.11092-0.49913 0.33276-0.6655c0.16638-0.11092 0.49914-0.16638 0.93173-0.16638h1.0981v-0.59895c0-0.22183 0.05546-0.38821 0.16638-0.49913s0.22184-0.22183 0.44368-0.22183 0.33276 0.11092 0.44368 0.27729c0.11092 0.16638 0.11092 0.38821 0.11092 0.70987v0.33275h3.0836c0.38822 0 0.66552-0.05546 0.82081-0.11092 0.16638-0.11092 0.22184-0.22183 0.22184-0.44367 0-0.22183-0.05546-0.33275-0.05546-0.38821 0-0.11092 0-0.16638-0.05546-0.22183 0-0.33275 0.05546-0.44367 0.16638-0.55458s0.22184-0.11092 0.38822-0.11092c0.2773 0 0.49914 0.11092 0.61006 0.38821s0.22184 0.72096 0.22184 1.2645zm-5.5571-4.5698c0 0.44367 0.16638 0.76533 0.44368 1.0426s0.72098 0.33275 1.209 0.38821v-2.9171c-0.49914 0-0.93173 0.16638-1.209 0.38821a1.442 1.4419 0 0 0-0.44368 1.0981zm5.5571-0.22183c0 1.0426-0.33276 1.8745-0.87627 2.4734-0.61006 0.55458-1.3754 0.87624-2.529 0.87624a3.5494 3.5493 0 0 1-2.4181-0.87624c-0.59897-0.54349-0.87627-1.3199-0.87627-2.3182a3.2167 3.2166 0 0 1 0.76535-2.2072c0.48805-0.55458 1.1536-0.82078 1.9855-0.82078 0.38822 0 0.66552 0.11092 0.8319 0.33275s0.22184 0.55458 0.22184 0.98716v3.1944c0.5546 0 0.98719-0.11092 1.3199-0.44367 0.33276-0.33275 0.49914-0.6655 0.49914-1.1535 0-0.33275-0.11092-0.72096-0.33276-1.0426l-0.70989-0.87624c-0.11092-0.16638-0.11092-0.27729-0.11092-0.33275 0-0.16638 0.05546-0.33275 0.16638-0.44367s0.22184-0.11092 0.38822-0.11092c0.44368 0 0.82081 0.27729 1.1536 0.82078 0.33276 0.54349 0.5546 1.209 0.5546 1.93zm0-6.5996c0 0.98716-0.33276 1.819-0.87627 2.3625-0.54351 0.54349-1.3754 0.82078-2.3626 0.82078-1.1536 0-1.9855-0.27729-2.5844-0.87624s-0.87627-1.3754-0.87627-2.3625c0-0.82078 0.22184-1.4863 0.61006-2.0298 0.38822-0.54349 0.82081-0.83188 1.3199-0.83188 0.22184 0 0.38822 0.05546 0.49914 0.22183 0.11092 0.11092 0.16638 0.27729 0.16638 0.49913 0 0.16638 0 0.27729-0.11092 0.38821s-0.16638 0.16638-0.33276 0.27729a1.6638 1.6638 0 0 0-0.5546 0.49913 1.442 1.4419 0 0 0-0.33276 0.98716c0 0.49913 0.16638 0.87624 0.5546 1.209 0.38822 0.33275 0.87627 0.38821 1.5972 0.38821a2.5512 2.5511 0 0 0 1.5418-0.38821c0.33276-0.33275 0.5546-0.72096 0.5546-1.209s-0.11092-0.76533-0.33276-1.0426c-0.16638-0.16638-0.33276-0.33275-0.61006-0.49913-0.16638-0.05546-0.33276-0.16638-0.38822-0.22183-0.16638-0.16638-0.22184-0.33275-0.22184-0.49913s0.05546-0.38821 0.22184-0.49913 0.2773-0.22183 0.49914-0.22183c0.5546 0 1.0426 0.27729 1.4309 0.87624 0.38822 0.59895 0.59897 1.2645 0.59897 2.1518zm0-8.8623c0 0.22183-0.11092 0.44367-0.2773 0.61004-0.16638 0.11092-0.44368 0.22183-0.72098 0.22183h-2.8063c-0.5546 0-0.98719 0.05546-1.2645 0.22183-0.2773 0.16638-0.38822 0.49913-0.38822 0.87624s0.11092 0.6655 0.33276 0.87624a1.9966 1.9965 0 0 0 0.66552 0.44367c0.11092 0 0.2773 0.05546 0.49914 0.05546 0.2773 0.05546 0.5546 0.05546 0.93173 0.05546h2.0409c0.33276 0 0.5546 0.05546 0.72098 0.22183 0.16638 0.16638 0.2773 0.33275 0.2773 0.61004 0 0.27729-0.11092 0.44367-0.2773 0.61004s-0.44368 0.22183-0.72098 0.22183h-4.7917c-0.2773 0-0.49914-0.11092-0.66552-0.22183s-0.2773-0.33275-0.2773-0.55458c0-0.27729 0.11092-0.44367 0.2773-0.61004 0.16638-0.16638 0.38822-0.16638 0.66552-0.16638h0.16638c-0.2773-0.27729-0.5546-0.49913-0.72098-0.72096a2.8839 2.8838 0 0 1-0.38822-1.4308c0-0.49913 0.16638-0.9317 0.38822-1.2645 0.22184-0.33275 0.38822-0.49913 0.72098-0.61004 0.16638-0.11092 0.33276-0.16638 0.49914-0.22183 0.16638-0.05546 0.5546-0.05546 1.0426-0.05546h3.0836c0.2773 0 0.5546 0.05546 0.72098 0.22183 0.16638 0.16638 0.2773 0.33275 0.2773 0.61004zm-5.5016-4.7916c0 0.49913 0.22184 0.87624 0.5546 1.1535 0.38822 0.33275 0.93173 0.44367 1.6527 0.44367s1.1536-0.11092 1.5418-0.44367c0.38822-0.33275 0.5546-0.6655 0.5546-1.1535s-0.22184-0.87624-0.5546-1.209a2.5512 2.5511 0 0 0-1.5418-0.38821c-0.76535 0-1.2645 0.11092-1.6527 0.44367-0.33276 0.27729-0.5546 0.6655-0.5546 1.1535zm5.5016 0c0 0.98716-0.33276 1.819-0.87627 2.3625-0.61006 0.59895-1.4309 0.87624-2.4181 0.87624-1.0981 0-1.93-0.27729-2.4735-0.87624a3.1058 3.1057 0 0 1-0.93173-2.3625 3.1058 3.1057 0 0 1 0.93173-2.3625c0.5546-0.61004 1.3754-0.87624 2.4735-0.87624 0.98719 0 1.8191 0.27729 2.4181 0.87624s0.87627 1.3754 0.87627 2.3625zm0-4.8471c0 0.27729-0.11092 0.49913-0.2773 0.61004-0.16638 0.11092-0.38822 0.22183-0.72098 0.22183h-7.1543c-0.2773 0-0.5546-0.05546-0.70989-0.22183-0.15529-0.16638-0.22184-0.33275-0.22184-0.61004s0.05546-0.44367 0.22184-0.61004c0.16638-0.11092 0.44368-0.22183 0.70989-0.22183h7.1543c0.33276 0 0.5546 0.11092 0.72098 0.22183s0.2773 0.33275 0.2773 0.61004zm-5.5016-4.8471c0 0.49913 0.22184 0.9317 0.5546 1.209 0.38822 0.27729 0.93173 0.38821 1.6527 0.38821a2.5512 2.5511 0 0 0 1.5418-0.38821c0.33276-0.27729 0.5546-0.70987 0.5546-1.209 0-0.49912-0.22184-0.87624-0.5546-1.1535s-0.87627-0.44367-1.5418-0.44367c-0.76535 0-1.2645 0.16638-1.6527 0.44367-0.33276 0.27729-0.5546 0.6655-0.5546 1.1535zm5.5016 0c0 0.98716-0.33276 1.819-0.87627 2.3625-0.61006 0.59895-1.4309 0.87624-2.4181 0.87624-1.0981 0-1.93-0.27729-2.4735-0.87624-0.61006-0.55458-0.93173-1.3199-0.93173-2.3625a3.1058 3.1057 0 0 1 0.93173-2.3625c0.5546-0.61004 1.3754-0.87624 2.4735-0.87624a3.5494 3.5493 0 0 1 2.4181 0.87624c0.5546 0.61004 0.87627 1.3754 0.87627 2.3625zm-5.4462-6.8768c0 0.49913 0.16638 0.87624 0.49914 1.1535 0.38822 0.33275 0.87627 0.44367 1.5418 0.44367s1.1536-0.11092 1.5418-0.44367c0.33276-0.27729 0.49914-0.6655 0.49914-1.1535s-0.16638-0.87624-0.49914-1.1535a2.3293 2.3293 0 0 0-1.4309-0.44367c-0.72098 0-1.2645 0.16638-1.5972 0.44367s-0.5546 0.6655-0.5546 1.1535zm7.8753 0.11092a4.215 4.2148 0 0 1-0.49914 2.0963c-0.33276 0.55458-0.70989 0.83188-1.1536 0.83188-0.16638 0-0.33276-0.05546-0.44368-0.16638-0.11092-0.11092-0.22184-0.33275-0.22184-0.55458 0-0.11092 0.05546-0.22183 0.11092-0.33275s0.11092-0.16638 0.22184-0.27729c0.2773-0.22183 0.44368-0.44367 0.5546-0.61004a1.8856 1.8856 0 0 0 0.2773-0.98716c0-0.70987-0.16638-1.1535-0.49914-1.3754-0.33276-0.16638-0.98719-0.27729-1.9855-0.27729 0.2773 0.22183 0.5546 0.44367 0.70989 0.6655a2.6621 2.662 0 0 1 0.33276 1.3754 2.4402 2.4402 0 0 1-0.87627 2.0298c-0.61006 0.44367-1.4309 0.72096-2.4735 0.72096-0.98719 0-1.7636-0.27729-2.3071-0.72096-0.54351-0.44367-0.8319-1.1535-0.8319-2.0298 0-0.55458 0.11092-1.0426 0.33276-1.4308 0.16638-0.22183 0.44368-0.44367 0.76535-0.72096h-0.22184c-0.2773 0-0.49914-0.05546-0.66552-0.16638-0.16638-0.11092-0.2773-0.33275-0.2773-0.55458 0-0.33275 0.11092-0.49913 0.33276-0.61004 0.16638-0.16638 0.49914-0.22183 0.87627-0.22183h4.7917c1.0981 0 1.8745 0.27729 2.3626 0.76533 0.49914 0.55458 0.77644 1.3754 0.77644 2.5289zm-2.4181-5.2242c0 0.27729-0.11092 0.44367-0.2773 0.61004a1.2201 1.2201 0 0 1-0.72098 0.22183h-4.7363a1.2201 1.2201 0 0 1-0.70989-0.22183c-0.16638-0.16638-0.2773-0.33275-0.2773-0.61004s0.11092-0.44367 0.2773-0.61004c0.16638-0.16638 0.38822-0.22183 0.66552-0.22183h4.7917c0.2773 0 0.5546 0.055458 0.72098 0.22183 0.16638 0.16638 0.2773 0.33275 0.2773 0.61004zm-7.4316 0c0 0.22183-0.11092 0.44367-0.22184 0.61004-0.11092 0.16638-0.33276 0.22183-0.61006 0.22183s-0.44368-0.11092-0.5546-0.27729c-0.11092-0.16638-0.22184-0.33275-0.22184-0.55458 0-0.22183 0.05546-0.44367 0.22184-0.61004 0.16638-0.16638 0.33276-0.22183 0.5546-0.22183 0.2773 0 0.44368 0.055458 0.61006 0.22183 0.16638 0.16638 0.22184 0.33275 0.22184 0.61004zm4.1262-6.0006c0.05546 0.11092 0.11092 0.27729 0.16638 0.44367s0.05546 0.33275 0.11092 0.61004l0.33276 1.1535c0.16638 0.33275 0.44368 0.49913 0.72098 0.49913s0.49914-0.055458 0.66552-0.27729c0.16638-0.22183 0.22184-0.44367 0.22184-0.72096 0-0.55458-0.16638-0.98716-0.44368-1.2645-0.33276-0.33275-0.8319-0.44367-1.4863-0.44367zm3.3054-1.0981c0 0.16638-0.11092 0.38821-0.33276 0.55458-0.16638 0.11092-0.33276 0.27729-0.61006 0.44367 0.2773 0.38821 0.49914 0.6655 0.61006 0.9317 0.22184 0.44367 0.33276 0.9317 0.33276 1.4308 0 0.6655-0.16638 1.1535-0.49914 1.5417-0.33276 0.38821-0.82081 0.55458-1.3754 0.55458s-1.0426-0.22183-1.3199-0.6655c-0.2773-0.33275-0.49914-0.87624-0.66552-1.7081-0.05546-0.38821-0.16638-0.72096-0.22184-1.0426s-0.16638-0.59895-0.22184-0.9317c-0.49914 0-0.76535 0.11092-0.98719 0.27729-0.22184 0.16638-0.2773 0.49913-0.2773 0.9317s0.05546 0.76533 0.22184 0.98716c0.05546 0.16638 0.22184 0.33275 0.44368 0.49913 0.22184 0.16638 0.33276 0.22183 0.44368 0.27729 0.11092 0.11092 0.16638 0.27729 0.16638 0.44367 0 0.16638-0.05546 0.33275-0.16638 0.44367-0.11092 0.11092-0.2773 0.22183-0.49914 0.22183-0.49914 0-0.93173-0.27729-1.2645-0.76533-0.33276-0.48803-0.49914-1.209-0.49914-2.0963 0-1.0426 0.22184-1.7636 0.61006-2.1407 0.38822-0.44367 0.98719-0.6655 1.93-0.6655h1.9411c0.16638 0 0.2773 0 0.44368-0.055458s0.33276-0.055458 0.49914-0.11092c0.16638-0.055458 0.2773-0.055458 0.44368-0.11092 0.38822 0 0.5546 0.055458 0.66552 0.22183 0.11092 0.16638 0.22184 0.33275 0.22184 0.55458z" stroke-width="11.092"/><use transform="matrix(11.092 0 0 11.092 -637.32 -426.28)" width="100%" height="100%" xlink:href="#A"/><use transform="matrix(11.092 0 0 11.092 -637.32 -426.28)" x="1.877" y="-1.877" width="100%" height="100%" xlink:href="#A"/><use transform="matrix(11.092 0 0 11.092 -637.32 -426.28)" x="1.877" y="1.877" width="100%" height="100%" xlink:href="#A"/><use transform="matrix(11.092 0 0 11.092 -637.32 -426.28)" x="3.7539999" width="100%" height="100%" xlink:href="#A"/></g><g fill="#008bd0" fill-rule="evenodd"><use transform="matrix(11.092 0 0 11.092 -637.32 -426.28)" y="-1.877" width="100%" height="100%" xlink:href="#A"/><use transform="matrix(11.092 0 0 11.092 -637.32 -426.28)" x="3.7539999" y="-1.877" width="100%" height="100%" xlink:href="#A"/><use transform="matrix(11.092 0 0 11.092 -637.32 -426.28)" x="3.7539999" y="1.877" width="100%" height="100%" xlink:href="#A"/><path d="m11.551 41.76c-6.2556 0.38956-8.9877 8.7885-4.8532 13.036 3.1961 3.8102 9.8916 3.2467 12.42-1.0429 1.5437-2.7736 1.5972-6.1219 3.1128-8.9331 1.8552-4.6319 6.6051-7.0998 11.276-7.9546 3.5037-0.39791 7.0161-2.7441 7.5267-6.4526 1.4451-5.1024-3.5806-10.297-8.6837-9.5244-3.5239 0.25529-6.1551 3.2798-6.8211 6.6055-1.5181 4.9055-3.5478 10.437-8.6315 12.636-1.6912 0.79894-3.5123 1.2917-5.3463 1.6301z" stroke-width="11.092"/></g><defs><path id="A" d="M58.581 40.309a.7.7 0 0 0-.701.701c0 .394.312.711.701.711a.71.71 0 0 0 .711-.711c0-.389-.317-.701-.711-.701z"/></defs></svg>
