<svg xmlns="http://www.w3.org/2000/svg" width="30" height="26.346" xmlns:v="https://vecta.io/nano"><g transform="matrix(.333334 0 0 .333334 0 -1.827434)"><circle cx="35.642" cy="49.002" r="25.732" fill="#60b6ff"/><path d="M12.194 38.392c.71 1.376 1.811 2.647 3.017 3.619.646.521 1.37.991 1.789 1.707.305.522.423 1.135.714 1.666.74 1.349 2.375 1.857 3.783 2.478 1.024.451 1.996 1.019 2.892 1.689.247.184.493.383.646.651.663 1.165-.808 2.439-.909 3.776-.065.864.466 1.665 1.093 2.263s1.371 1.073 1.937 1.729c.986 1.144 1.318 2.708 1.455 4.212s.239 4.867.663 6.317 2.903 3.849 2.738 1.435c-.259-1.3-.445-2.852.518-3.762.52-.491 1.264-.664 1.85-1.074 1.659-1.161 1.567-3.749 2.976-5.203.365-.376.819-.662 1.156-1.063.678-.805.784-1.931.859-2.981.041-.566.075-1.166-.193-1.666-.767-1.433-3.223-.937-4.171-2.257-.366-.509-.413-1.177-.68-1.744-.436-.927-1.418-1.486-2.407-1.754s-2.026-.303-3.03-.509c-1.394-.287-2.699-.9-3.953-1.572-1.301-.697-2.731-1.757-2.661-3.231.021-.443.201-.894.553-1.164.529-.408 1.27-.319 1.939-.297 2.838.091 5.661-1.564 6.968-4.084.304-.587.555-1.242 1.086-1.634.324-.239.72-.353 1.099-.487a9.86 9.86 0 0 0 2.891-1.611c.169-.136.339-.286.419-.487.103-.261.035-.558-.073-.817-.517-1.23-2.005-1.96-3.294-1.614-.864.232-1.569.862-2.415 1.154s-2.035.03-2.204-.848c-.045-.233-.009-.473.039-.705.186-.91.543-1.784 1.046-2.564-2.416-.954-5.81-1.164-8.374-.745l-.001-.002c-2.103 1.324-4.001 2.944-5.635 4.801a25.66 25.66 0 0 0-4.126 6.378zm42.218 28.211c-1.506-2.357-2.941-4.559-2.886-7.356.04-2.011.926-3.98.663-5.974-.041-.311-.114-.627-.297-.882s-.46-.423-.735-.574c-1.415-.775-2.998-1.24-4.607-1.355-.701-.05-1.429-.039-2.073-.319-1.222-.531-1.799-1.957-1.936-3.283-.102-.991-.009-2.052.558-2.872.593-.857 1.628-1.324 2.661-1.463s2.08.011 3.112.161l2.807.407c1.312.19 2.8.335 3.822-.509.729-.602 1.04-1.663.752-2.563s-1.157-1.584-2.1-1.651c-.749-.054-1.472.245-2.172.516-1.478.572-2.995 1.043-4.537 1.41-.344.082-.72.156-1.041.008-.444-.205-.608-.741-.724-1.217-.184-.757-.365-1.573-.076-2.297.423-1.06 1.647-1.496 2.641-2.056s1.94-1.762 1.361-2.746c-.19-.323-.513-.543-.764-.822-.885-.982.15-2.745 1.268-3.451l-.076-.052C56.878 32.287 61.378 40.118 61.378 49a25.65 25.65 0 0 1-6.966 17.603z" fill="#afe05b"/><g fill="#12222e"><path d="M35.643 75.734c-14.74 0-26.731-11.991-26.731-26.731a26.52 26.52 0 0 1 2.372-11.023 26.73 26.73 0 0 1 4.285-6.629c1.704-1.937 3.673-3.614 5.854-4.986 4.254-2.678 9.172-4.093 14.222-4.093 5.356 0 10.525 1.579 14.947 4.566a26.72 26.72 0 0 1 11.785 22.166 26.63 26.63 0 0 1-7.232 18.285 26.85 26.85 0 0 1-19.502 8.445zm0-51.463c-4.672 0-9.222 1.309-13.156 3.786a24.83 24.83 0 0 0-5.417 4.615c-1.622 1.843-2.956 3.906-3.965 6.133-1.455 3.212-2.193 6.643-2.193 10.198 0 13.637 11.095 24.731 24.731 24.731a24.49 24.49 0 0 0 18.041-7.815c4.315-4.599 6.691-10.606 6.691-16.916 0-8.229-4.076-15.896-10.904-20.509a24.61 24.61 0 0 0-13.828-4.223z"/><path d="M31.566 71.961c-1.377 0-2.904-1.988-3.253-3.182-.346-1.183-.485-3.336-.596-5.066l-.103-1.44c-.098-1.074-.331-2.622-1.216-3.65-.282-.327-.641-.619-1.021-.929l-.848-.729c-.996-.949-1.48-2.008-1.4-3.062.055-.733.377-1.38.661-1.951.307-.617.499-1.038.375-1.256-.063-.109-.266-.262-.375-.344a13.79 13.79 0 0 0-2.696-1.574l-.613-.262c-1.333-.559-2.843-1.192-3.643-2.65-.176-.321-.296-.649-.401-.939-.095-.262-.186-.509-.299-.703-.243-.415-.692-.763-1.169-1.132l-.385-.302c-1.375-1.108-2.539-2.507-3.277-3.939a1 1 0 0 1 .43-1.347 1 1 0 0 1 1.347.43c.614 1.19 1.593 2.362 2.755 3.299l.354.278c.578.447 1.233.955 1.671 1.704.205.35.335.71.452 1.028.082.226.161.452.275.662.464.845 1.532 1.293 2.664 1.768l.646.275a15.76 15.76 0 0 1 3.087 1.803c.313.234.668.521.916.956.66 1.16.091 2.302-.323 3.136-.212.427-.432.868-.458 1.211-.032.424.254.957.786 1.464.232.221.481.423.73.625.432.352.877.714 1.275 1.176 1.26 1.463 1.57 3.425 1.693 4.773l.106 1.493.52 4.633c.099.338.369.752.657 1.094-.197-1.397-.129-2.844.954-3.866.415-.393.889-.617 1.307-.815l.656-.352c.643-.45.951-1.291 1.308-2.266.343-.936.731-1.996 1.523-2.814a8.02 8.02 0 0 1 .59-.53c.199-.166.386-.322.52-.48.458-.544.555-1.413.626-2.409.028-.384.063-.861-.077-1.122-.179-.334-.678-.487-1.479-.699-.872-.23-1.956-.518-2.623-1.445-.317-.441-.455-.911-.576-1.325-.057-.196-.111-.394-.197-.577-.253-.537-.896-.979-1.764-1.215-.504-.136-1.041-.207-1.609-.281l-1.362-.214c-1.587-.327-3.026-1.028-4.224-1.671-2.189-1.173-3.262-2.572-3.188-4.158.037-.781.38-1.477.941-1.909.756-.583 1.679-.544 2.354-.514l.227.009c2.441.085 4.925-1.38 6.048-3.545l.148-.296c.28-.569.598-1.215 1.232-1.682.402-.296.829-.443 1.205-.572l.155-.053c.943-.333 1.817-.819 2.597-1.447l.078-.065c-.006-.02-.015-.044-.027-.072-.322-.768-1.31-1.249-2.113-1.036-.339.091-.693.294-1.067.508-.394.226-.801.459-1.28.625-.828.285-1.78.209-2.488-.2-.547-.316-.911-.815-1.025-1.404-.079-.403-.023-.78.041-1.095.126-.62.32-1.218.577-1.789-2.02-.549-4.593-.688-6.764-.333-.548.09-1.059-.28-1.148-.826a1 1 0 0 1 .826-1.148c2.952-.483 6.448-.168 8.902.802.279.11.494.339.585.625a1 1 0 0 1-.112.848 6.51 6.51 0 0 0-.906 2.22c-.042.203-.043.283-.037.314.059.101.502.23.896.094.3-.104.61-.281.938-.469.447-.256.953-.547 1.544-.705 1.763-.472 3.77.512 4.475 2.193.241.572.269 1.102.081 1.573-.162.407-.442.672-.721.896a10.77 10.77 0 0 1-3.187 1.775l-.17.059c-.264.091-.514.176-.669.291-.241.178-.427.556-.624.955l-.167.334c-1.489 2.868-4.657 4.717-7.888 4.624l-.25-.01c-.406-.017-.868-.038-1.046.099-.09.069-.156.238-.165.42-.044.933 1.137 1.767 2.135 2.302 1.071.575 2.346 1.199 3.682 1.474l1.22.189 1.87.335c1.457.394 2.541 1.208 3.051 2.293.141.3.229.602.307.867.083.286.162.556.28.719.248.346.861.508 1.511.68.948.252 2.128.564 2.73 1.689.413.771.353 1.603.309 2.21-.075 1.041-.178 2.468-1.092 3.553-.247.294-.524.524-.769.729l-.435.387c-.497.512-.78 1.288-1.081 2.109-.414 1.128-.881 2.406-2.04 3.217-.317.222-.651.38-.946.52-.325.154-.606.288-.791.462-.587.555-.443 1.747-.225 2.84.009.043.014.085.017.128.113 1.659-.804 2.004-1.203 2.075-.075.009-.155.016-.235.016zm22.847-4.358a1 1 0 0 1-.844-.462l-.07-.109c-1.491-2.334-3.033-4.748-2.973-7.804.019-.944.2-1.85.376-2.725.219-1.089.425-2.117.295-3.099-.028-.216-.068-.36-.117-.429-.071-.099-.304-.226-.403-.28a10.32 10.32 0 0 0-4.198-1.235l-.354-.021c-.632-.034-1.35-.074-2.046-.377-1.404-.611-2.327-2.104-2.532-4.098-.148-1.437.098-2.629.73-3.543.695-1.006 1.917-1.693 3.351-1.885 1.176-.158 2.351.013 3.388.162l2.807.407c1.157.168 2.348.284 3.04-.29.412-.34.6-.979.438-1.488s-.687-.92-1.219-.958c-.49-.028-1.043.181-1.631.409l-.111.042a36.28 36.28 0 0 1-4.666 1.451c-.361.087-1.035.246-1.693-.058-.919-.425-1.16-1.413-1.275-1.888-.191-.782-.452-1.854-.034-2.904.482-1.206 1.616-1.792 2.527-2.264l.551-.292c.487-.274.912-.738 1.011-1.103.037-.14.013-.209-.02-.265-.049-.083-.17-.195-.298-.314l-.348-.346c-.466-.517-.666-1.214-.563-1.962.153-1.106.992-2.341 2.04-3.003.469-.293 1.085-.155 1.38.312a1 1 0 0 1-.312 1.379c-.549.346-1.054 1.057-1.127 1.585-.032.239.038.317.068.351.07.078.148.149.226.221.205.191.46.43.656.762.32.543.398 1.165.228 1.799-.285 1.062-1.199 1.898-1.96 2.326l-.613.327c-.712.368-1.384.716-1.589 1.229-.168.42-.045 1.014.119 1.689.102.415.172.534.204.567-.003-.02.138-.042.359-.094a34.06 34.06 0 0 0 4.406-1.37l.107-.042c.732-.284 1.56-.609 2.497-.54a3.46 3.46 0 0 1 2.98 2.344 3.46 3.46 0 0 1-1.067 3.639c-1.325 1.096-3.069.951-4.602.728l-2.807-.407c-.951-.138-1.938-.281-2.835-.159-.877.117-1.595.497-1.971 1.041-.441.636-.453 1.548-.386 2.2.048.463.286 2.01 1.34 2.469.367.159.849.187 1.359.215l.387.023a12.33 12.33 0 0 1 5.017 1.476c.378.207.769.455 1.064.864.331.459.431.982.478 1.337.174 1.31-.075 2.552-.316 3.753-.165.826-.322 1.605-.337 2.371-.049 2.451 1.206 4.414 2.658 6.688l.07.11a1 1 0 0 1-.305 1.381c-.165.106-.35.157-.535.157z"/></g><path d="M63.056 27.635c3.057-7.725-2.546-17.121-8.505-19.93-9.053-3.469-17.082 1.012-24.307 6.094 3.311.396 6.117 4.178 8.114 7.486 1.686 2.794 3.598 5.962 6.82 8.045 5.883 3.614 12.214 2.44 17.878-1.695z" fill="#80b22b"/><g fill="#12222e"><path d="M52.551 32.476c-2.737 0-5.402-.762-7.896-2.294-3.435-2.22-5.41-5.491-7.152-8.377-2.683-4.446-5.096-6.739-7.377-7.013a1 1 0 0 1-.456-1.811c7.592-5.339 15.904-9.786 25.239-6.209 6.851 3.225 12.263 13.183 9.077 21.231-.069.176-.188.328-.34.439-3.673 2.682-7.449 4.034-11.095 4.034zM32.503 13.459c2.88 1.417 5.15 4.726 6.71 7.31 1.632 2.703 3.479 5.765 6.507 7.721 6.361 3.908 12.449 1.399 16.507-1.491 2.523-6.909-2.305-15.657-8.104-18.389-7.377-2.827-14.072-.21-21.62 4.849zm30.553 14.176h.01z"/><path d="M35.643 84.521C15.989 84.521 0 68.532 0 48.878c0-5.123 1.064-10.068 3.163-14.697C4.249 31.782 5.607 29.5 7.2 27.395a35.34 35.34 0 0 1 1.676-2.053 35.76 35.76 0 0 1 7.805-6.649 1 1 0 0 1 1.066 1.692 33.77 33.77 0 0 0-7.369 6.278 33.67 33.67 0 0 0-1.583 1.939c-1.503 1.986-2.785 4.141-3.811 6.404C3.004 39.375 2 44.042 2 48.878c0 18.551 15.092 33.644 33.643 33.644a33.32 33.32 0 0 0 24.542-10.631c5.869-6.256 9.102-14.429 9.102-23.013 0-6.049-1.776-12.047-5.431-18.337-2.935-5.053-7.987-7.819-11.708-9.25a1 1 0 0 1-.575-1.292c.199-.515.78-.773 1.292-.575 4.022 1.546 9.493 4.556 12.721 10.112 3.836 6.604 5.701 12.931 5.701 19.342 0 9.094-3.425 17.753-9.643 24.382-6.715 7.157-16.192 11.261-26.001 11.261z"/></g><path d="M68.604 37.827c-1.9-4.802 1.582-10.642 5.287-12.389 5.628-2.156 10.618.629 15.109 3.788-2.058.246-3.802 2.597-5.044 4.654-1.048 1.737-2.236 3.706-4.24 5.001-3.656 2.246-7.591 1.516-11.112-1.054z" fill="#80b22b"/><g fill="#12222e"><path d="M75.127 41.215c-2.344 0-4.763-.865-7.113-2.581a1 1 0 0 1-.34-.439c-2.054-5.188 1.427-11.604 5.79-13.661 6.041-2.318 11.308.496 16.111 3.875a1 1 0 0 1-.456 1.811c-1.277.153-2.727 1.559-4.307 4.178-1.104 1.83-2.355 3.903-4.553 5.324-1.625.997-3.358 1.493-5.132 1.493zm-5.692-4.024c2.427 1.7 6.018 3.135 9.759.837 1.79-1.157 2.914-3.021 3.906-4.665.896-1.484 2.161-3.34 3.773-4.373-4.388-2.854-8.313-4.269-12.625-2.619-2.985 1.411-6.291 6.54-4.813 10.82z"/><path d="M68.603 38.827a1 1 0 0 1-.791-1.61c1.541-1.997 3.684-3.773 6.368-5.28a1 1 0 0 1 1.361.382 1 1 0 0 1-.383 1.362c-2.448 1.375-4.388 2.975-5.763 4.757a1 1 0 0 1-.792.389z"/></g></g></svg>