<svg xmlns="http://www.w3.org/2000/svg" width="30" height="30" xmlns:v="https://vecta.io/nano"><g transform="matrix(.101613 0 0 .101613 -.241992 -.241941)"><path d="M202.382 140.476v42.857h-14.286v9.524h14.286v9.524H97.619v-9.524h14.286v-9.524H97.619v-42.857h14.286v-9.524H97.619v-9.524h28.571 47.619 28.572v9.524h-14.286v9.524z" fill="#f9d344"/><path d="M150.001 130.952c-10.505 0-19.048 8.543-19.048 19.048 0 4.6 1.714 9.052 4.762 12.524v30.333h28.571v-30.333c3.048-3.471 4.762-7.924 4.762-12.524 0-10.505-8.542-19.048-19.047-19.048z" fill="#fff"/><g fill="#ccc"><path d="M192.701 111.322h-9.524V97.036c0-10.838-5.171-20.767-13.781-26.976.114-.329.152-.681.238-1.019.09-.357.19-.7.248-1.067.152-1 .214-2.024.1-3.071-.11-.976.438-1.9 1.357-2.305.01-.005.019-.014.029-.019a12.12 12.12 0 0 0 2.181-1.243c11.9 7.905 19.152 21.276 19.152 35.7z"/><path d="M173.516 59.454l-.871.623a10.63 10.63 0 0 1-1.9 1.084l-.035.016-.035.016c-.343.171-.352.181-.029.02l.068-.031c-1.507.664-2.458 2.243-2.271 3.896l-.002-.006c.095.876.047 1.757-.09 2.66-.038.243-.12.539-.219.932l-.199.891-.379 1.09.936.674a31.56 31.56 0 0 1 13.139 25.719v15.836h12.623v-1.549-14.287a44.42 44.42 0 0 0-19.844-36.99zm-.092 3.729c11.016 7.678 17.727 20.261 17.727 33.854v12.736h-6.424V97.036c0-10.955-5.145-20.967-13.621-27.494.005-.025.024-.099.029-.119h.002v-.002c.081-.321.198-.714.275-1.205v-.004l.002-.004c.166-1.094.24-2.257.107-3.473v-.002-.004c-.034-.299.11-.567.441-.713l.035-.016.033-.016c.343-.171.352-.181.029-.02l-.07.033c.505-.222.96-.536 1.434-.816zm-43.619 4.791c.057.367.157.714.248 1.071.086.338.119.69.238 1.019-8.61 6.21-13.781 16.133-13.781 26.971v14.286h-9.524V97.036c0-14.424 7.257-27.795 19.157-35.705.681.495 1.419.914 2.205 1.262.919.405 1.467 1.329 1.357 2.31-.113 1.048-.051 2.071.1 3.071z"/><path d="M126.182 59.444l-.896.596c-12.329 8.195-19.85 22.052-19.85 36.996v15.836h12.623V97.036a31.55 31.55 0 0 1 13.139-25.715l.949-.684-.398-1.1c-.03-.083-.067-.38-.193-.875-.099-.387-.181-.684-.219-.926-.136-.906-.185-1.789-.09-2.668l-.002.006c.185-1.654-.764-3.234-2.27-3.898l-.002-.002a10.46 10.46 0 0 1-1.92-1.098zm.084 3.734c.48.286.942.605 1.455.832h.002c.331.146.476.413.441.721v.002.004c-.131 1.215-.058 2.376.107 3.469v.004l.002.002c.076.492.194.89.277 1.217a3.05 3.05 0 0 1 .029.117c-8.475 6.528-13.621 16.535-13.621 27.49v12.734h-6.424V97.036c0-13.592 6.715-26.175 17.73-33.857z"/></g><path d="M150.001 130.952c-10.505 0-19.048 8.543-19.048 19.048 0 4.6 1.714 9.052 4.762 12.524v30.333h28.571v-30.333c3.048-3.471 4.762-7.924 4.762-12.524 0-10.505-8.542-19.048-19.047-19.048zm6.333 26.091l-1.571 1.419v24.871h-9.524v-24.871l-1.571-1.419c-2.057-1.852-3.19-4.357-3.19-7.043 0-5.252 4.271-9.524 9.524-9.524s9.524 4.271 9.524 9.524c-.001 2.686-1.134 5.191-3.192 7.043zM35.715 2.381v295.238h228.571V2.381zm215.215 9.524l-17.858 28.571h-62.676c-.176-.367-.305-.771-.257-1.2.514-4.69-1.714-9.086-5.81-11.462-4.124-2.386-9.086-2.138-12.948.671a2.4 2.4 0 0 1-2.762 0c-3.862-2.814-8.824-3.062-12.948-.671-4.095 2.376-6.324 6.771-5.81 11.467.048.429-.076.829-.252 1.195H66.925L49.067 11.905zm-48.548 128.571v42.857h-14.286v9.524h14.286v9.524H97.619v-9.524h14.286v-9.524H97.619v-42.857h14.286v-9.524H97.619v-9.524h28.571 47.619 28.572v9.524h-14.286v9.524zm-72.42-71.919c.057.367.157.714.248 1.071.086.338.119.69.238 1.019-8.61 6.21-13.781 16.133-13.781 26.971v14.286h-9.524V97.619c0-14.424 7.257-27.795 19.157-35.705.681.495 1.419.914 2.205 1.262.919.405 1.467 1.329 1.357 2.31-.113 1.048-.051 2.071.1 3.071zm9.372-30.313c-.138-1.262.643-1.914 1.119-2.19.229-.133.667-.333 1.205-.333.41 0 .881.114 1.362.467 4.176 3.043 9.79 3.043 13.967 0 1.114-.81 2.167-.367 2.567-.129.481.276 1.257.929 1.119 2.186-.567 5.138 2.252 9.995 7.005 12.076 1.238.543 1.371 1.624 1.371 2.067 0 .195-.043.524-.181.871l-.138.248c-.252.443-.586.738-1.052.943-4.757 2.086-7.567 6.933-7.005 12.067.033.29.005.548-.048.776-.09.348-.31.757-.786 1.148l-.4.324c-.452.238-1.414.567-2.457-.181-4.176-3.043-9.79-3.043-13.967 0-1.038.752-2.005.419-2.457.181l-.4-.324c-.476-.39-.695-.8-.786-1.148-.052-.229-.076-.481-.048-.771.567-5.138-2.248-9.99-7.005-12.071-.467-.21-.8-.505-1.048-.943l-.143-.248c-.132-.35-.175-.679-.175-.874 0-.443.133-1.524 1.376-2.071 4.752-2.086 7.567-6.938 7.005-12.071zm34.477 59.376v14.285h-19.048V77.967c2.605.848 5.381.676 7.981-.376 6.862 4.352 11.067 11.805 11.067 20.029zm-36.578-20.015c1.438.586 2.919.976 4.414.976a11.53 11.53 0 0 0 3.586-.571v33.895h-19.048V97.619c.007-8.214 4.202-15.662 11.048-20.014zm55.625 34.3h-9.524V97.619c0-10.838-5.171-20.767-13.781-26.976.114-.329.152-.681.238-1.019.09-.357.19-.7.248-1.067.152-1 .214-2.024.1-3.071-.11-.976.438-1.9 1.357-2.305.01-.005.019-.014.029-.019a12.12 12.12 0 0 0 2.181-1.243c11.9 7.905 19.152 21.276 19.152 35.7zM45.239 23.748L61.649 50h60.124c-.157.781-.343 1.557-.343 2.386 0 .467.143.895.195 1.348-21.012 17.411-24.005 34.394-24.005 58.172h-9.524v100h57.143v38.095h-83.59l-16.41 26.252zm3.833 264.347l17.853-28.571h166.152l17.857 28.571zm205.691-11.843L238.353 250h-83.59v-38.095h57.143v-100h-9.524V97.619c0-17.843-9.152-34.267-24.005-43.886.052-.452.195-.881.195-1.348 0-.829-.186-1.605-.343-2.386h60.124l16.41-26.252z"/><path d="M139.334 38.244c-.138-1.262.643-1.914 1.119-2.19.229-.133.667-.333 1.205-.333.41 0 .881.114 1.362.467 4.176 3.043 9.79 3.043 13.967 0 1.114-.81 2.167-.367 2.567-.129.481.276 1.257.929 1.119 2.186-.567 5.138 2.252 9.995 7.005 12.076 1.238.543 1.371 1.624 1.371 2.067 0 .195-.043.524-.181.871l-.138.248c-.252.443-.586.738-1.052.943-4.757 2.086-7.567 6.933-7.005 12.067.033.29.005.548-.048.776-.09.348-.31.757-.786 1.148l-.4.324c-.452.238-1.414.567-2.457-.181-4.176-3.043-9.79-3.043-13.967 0-1.038.752-2.005.419-2.457.181l-.4-.324c-.476-.39-.695-.8-.786-1.148-.052-.229-.076-.481-.048-.771.567-5.138-2.248-9.99-7.005-12.071-.467-.21-.8-.505-1.048-.943l-.143-.248c-.132-.35-.175-.679-.175-.874 0-.443.133-1.524 1.376-2.071 4.752-2.086 7.567-6.938 7.005-12.071z" fill="#e33333"/><path d="M250.93 11.905l-17.858 28.571h-62.676c-.176-.367-.305-.771-.257-1.2.514-4.69-1.714-9.086-5.81-11.462-4.124-2.386-9.086-2.138-12.948.671a2.4 2.4 0 0 1-2.762 0c-3.862-2.814-8.824-3.062-12.948-.671-4.095 2.376-6.324 6.771-5.81 11.467.048.429-.076.829-.252 1.195H66.925L49.067 11.905zM49.072 288.095l17.853-28.571h166.152l17.857 28.571zM173.811 97.62v14.285h-19.048V77.967c2.605.848 5.381.676 7.981-.376 6.862 4.352 11.067 11.805 11.067 20.029zm-36.578-20.015c1.438.586 2.919.976 4.414.976a11.53 11.53 0 0 0 3.586-.571v33.895h-19.048V97.619c.007-8.214 4.202-15.662 11.048-20.014zM45.239 23.748L61.649 50h60.124c-.157.781-.343 1.557-.343 2.386 0 .467.143.895.195 1.348-21.012 17.411-24.005 34.394-24.005 58.172h-9.524v100h57.143v38.095h-83.59l-16.41 26.252zm209.524 252.504L238.353 250h-83.59v-38.095h57.143v-100h-9.524V97.619c0-17.843-9.152-34.267-24.005-43.886.052-.452.195-.881.195-1.348 0-.829-.186-1.605-.343-2.386h60.124l16.41-26.252z" fill="#dfb26a"/></g></svg>