<?xml version="1.0" encoding="UTF-8" standalone="no"?>
<svg
   viewBox="0 0 1024 1024"
   style="position: relative; top: 5.2px; width: 15.6px;"
   version="1.1"
   id="svg1152"
   sodipodi:docname="icon-wpp.svg"
   inkscape:version="1.4.2 (1:1.4.2+202505120737+ebf0e940d0)"
   inkscape:export-filename="/home/thiago/Documentos/togger/mail/icon-wpp.png"
   inkscape:export-xdpi="2.8099999"
   inkscape:export-ydpi="2.8099999"
   xmlns:inkscape="http://www.inkscape.org/namespaces/inkscape"
   xmlns:sodipodi="http://sodipodi.sourceforge.net/DTD/sodipodi-0.dtd"
   xmlns="http://www.w3.org/2000/svg"
   xmlns:svg="http://www.w3.org/2000/svg">
  <defs
     id="defs1156" />
  <sodipodi:namedview
     id="namedview1154"
     pagecolor="#ffffff"
     bordercolor="#666666"
     borderopacity="1.0"
     inkscape:pageshadow="2"
     inkscape:pageopacity="0.0"
     inkscape:pagecheckerboard="0"
     showgrid="false"
     inkscape:zoom="0.29140533"
     inkscape:cx="1300.5939"
     inkscape:cy="372.33362"
     inkscape:window-width="2504"
     inkscape:window-height="1371"
     inkscape:window-x="2616"
     inkscape:window-y="32"
     inkscape:window-maximized="1"
     inkscape:current-layer="svg1152"
     inkscape:showpageshadow="2"
     inkscape:deskcolor="#d1d1d1" />
  <rect
     style="font-variation-settings:normal;opacity:1;vector-effect:none;fill:#64bb46;fill-opacity:1;stroke-width:41.9214;stroke-linecap:butt;stroke-linejoin:miter;stroke-miterlimit:4;stroke-dasharray:none;stroke-dashoffset:0;stroke-opacity:1;-inkscape-stroke:none;paint-order:stroke markers fill;stop-color:#000000;stop-opacity:1"
     id="rect1237"
     width="1024"
     height="1024"
     x="0"
     y="0"
     ry="161.90802"
     inkscape:export-filename="icon-wpp.png"
     inkscape:export-xdpi="2.8099999"
     inkscape:export-ydpi="2.8099999" />
  <path
     d="m 624.14535,552.31159 c 8.78512,0 93.02356,43.92723 96.64036,50.12859 1.03383,2.58456 1.03383,5.68524 1.03383,7.75132 0,12.92041 -4.13451,27.39 -8.78514,39.2766 -11.88658,28.94073 -59.94833,47.5456 -89.40519,47.5456 -24.80701,0 -75.96942,-21.70477 -98.19032,-32.04141 C 451.53711,631.38092 405.543,574.01714 361.09809,508.38358 341.46019,479.44285 323.88835,443.78384 324.40683,408.12483 v -4.1345 c 1.03382,-34.10827 13.43655,-58.39759 38.24277,-81.65388 7.75131,-7.23519 16.02112,-11.36968 26.87311,-11.36968 6.20136,0 12.40272,1.54994 19.12177,1.54994 13.95424,0 16.53724,4.13451 21.70477,17.57183 3.61682,8.78514 29.97456,79.07012 29.97456,84.23765 0,19.63791 -35.65901,41.86115 -35.65901,53.74775 0,2.58456 1.03382,5.16755 2.58456,7.75132 11.36968,24.28932 33.07445,52.19623 52.71314,70.8011 23.77241,22.73937 49.09634,37.72586 78.03707,52.19623 3.61681,2.06687 7.23519,3.61681 11.36968,3.61681 15.50419,0 41.34268,-50.12859 54.78001,-50.12859 l -0.002,7.8e-4 z M 519.23518,826.21474 c 178.81117,0 324.54787,-145.73748 324.54787,-324.54865 0,-178.81116 -145.7367,-324.54787 -324.54787,-324.54787 -178.81115,0 -324.54787,145.73671 -324.54787,324.54787 0,68.21733 21.70477,134.88472 62.01518,190.18085 l -40.82654,120.41357 125.06497,-39.79273 c 52.71315,34.62597 115.24603,53.74775 178.29503,53.74775 h -7.7e-4 z m 0,-714.21474 c 214.98708,0 389.66298,174.67822 389.66298,389.66453 0,214.98629 -174.67668,389.66296 -389.66298,389.66296 -65.63278,0 -130.74942,-16.53723 -188.62934,-48.57787 L 115.10184,912 185.38605,702.69737 C 148.69478,642.23291 129.57299,572.46485 129.57299,501.66296 129.57299,286.67588 304.24966,112 519.23595,112 Z"
     fill="#ffffff"
     id="path1150"
     style="stroke-width:0.782013" />
</svg>
