<?xml version="1.0" encoding="UTF-8" standalone="no"?>
<svg
   viewBox="0 0 1024 1024"
   style="position: relative; top: 5.2px; width: 15.6px;"
   version="1.1"
   id="svg957"
   sodipodi:docname="icon-link.svg"
   inkscape:version="1.1.2 (0a00cf5339, 2022-02-04)"
   inkscape:export-filename="/home/thiago/Documentos/togger/mail/icon-link.png"
   inkscape:export-xdpi="2.8099999"
   inkscape:export-ydpi="2.8099999"
   xmlns:inkscape="http://www.inkscape.org/namespaces/inkscape"
   xmlns:sodipodi="http://sodipodi.sourceforge.net/DTD/sodipodi-0.dtd"
   xmlns="http://www.w3.org/2000/svg"
   xmlns:svg="http://www.w3.org/2000/svg">
  <defs
     id="defs961" />
  <sodipodi:namedview
     id="namedview959"
     pagecolor="#ffffff"
     bordercolor="#666666"
     borderopacity="1.0"
     inkscape:pageshadow="2"
     inkscape:pageopacity="0.0"
     inkscape:pagecheckerboard="0"
     showgrid="false"
     inkscape:zoom="0.41210938"
     inkscape:cx="976.68246"
     inkscape:cy="444.05687"
     inkscape:window-width="2560"
     inkscape:window-height="1043"
     inkscape:window-x="0"
     inkscape:window-y="0"
     inkscape:window-maximized="1"
     inkscape:current-layer="svg957" />
  <rect
     style="font-variation-settings:normal;vector-effect:none;fill:#008bd0;fill-opacity:1;stroke-width:41.9214;stroke-linecap:butt;stroke-linejoin:miter;stroke-miterlimit:4;stroke-dasharray:none;stroke-dashoffset:0;stroke-opacity:1;-inkscape-stroke:none;paint-order:stroke markers fill;stop-color:#000000"
     id="rect1237"
     width="1024"
     height="1024"
     x="0"
     y="0"
     ry="161.90802" />
  <path
     d="m 454.58852,611.01279 c -10.64765,0 -21.29295,-4.06093 -29.4156,-12.18436 -76.10696,-76.10852 -76.10696,-199.94668 0,-276.05598 L 578.77277,169.1726 C 615.64305,132.30389 664.66097,112 716.79998,112 c 52.13901,0 101.15849,20.30389 138.02877,57.17104 76.10543,76.10852 76.10543,199.94668 0,276.05598 l -70.21243,70.21243 c -16.24608,16.24608 -42.58434,16.24608 -58.83198,0 -16.24451,-16.24452 -16.24451,-42.5859 0,-58.83197 l 70.21244,-70.21244 c 43.66714,-43.6687 43.66714,-114.72332 0,-158.39203 -21.15389,-21.15388 -49.27964,-32.80309 -79.1968,-32.80309 -29.91716,0 -58.04135,11.64921 -79.1968,32.80465 L 484.00333,381.60286 c -43.66871,43.66871 -43.66871,114.72489 0,158.3936 16.24608,16.24451 16.24452,42.58589 0,58.83197 -8.1203,8.12187 -18.76951,12.18436 -29.41403,12.18436 v 0 z M 307.1996,912 c -52.14058,0 -101.16006,-20.30389 -138.02721,-57.17104 -76.106955,-76.10852 -76.106955,-199.94668 0,-276.05598 l 70.21087,-70.21087 c 16.24607,-16.24451 42.58746,-16.24451 58.83197,0 16.24608,16.24452 16.24608,42.5859 0,58.83198 l -70.21087,70.21087 c -43.6687,43.6687 -43.6687,114.72488 0,158.39359 21.15232,21.15232 49.27808,32.80153 79.19524,32.80153 29.91715,0 58.04135,-11.64921 79.19836,-32.80465 L 539.99781,642.39714 c 43.66714,-43.66871 43.66714,-114.72489 0,-158.3936 -16.24608,-16.24607 -16.24452,-42.58589 0,-58.83197 16.24451,-16.24452 42.58589,-16.24452 58.83197,0.002 76.1054,76.10696 76.1054,199.94512 0.002,276.05442 L 445.22993,854.8274 C 408.35809,891.69768 359.33861,912 307.1996,912 Z"
     fill="#ffffff"
     id="path955"
     style="stroke-width:0.781249" />
</svg>
