<?xml version="1.0" encoding="UTF-8" standalone="no"?>
<svg
   viewBox="0 0 1024 1024"
   style="position: relative; top: 5.2px; width: 15.6px;"
   version="1.1"
   id="svg1087"
   sodipodi:docname="icon-location.svg"
   inkscape:version="1.1.2 (0a00cf5339, 2022-02-04)"
   inkscape:export-filename="/home/thiago/Documentos/togger/mail/icon-location.png"
   inkscape:export-xdpi="2.8099999"
   inkscape:export-ydpi="2.8099999"
   xmlns:inkscape="http://www.inkscape.org/namespaces/inkscape"
   xmlns:sodipodi="http://sodipodi.sourceforge.net/DTD/sodipodi-0.dtd"
   xmlns="http://www.w3.org/2000/svg"
   xmlns:svg="http://www.w3.org/2000/svg">
  <defs
     id="defs1091" />
  <sodipodi:namedview
     id="namedview1089"
     pagecolor="#ffffff"
     bordercolor="#666666"
     borderopacity="1.0"
     inkscape:pageshadow="2"
     inkscape:pageopacity="0.0"
     inkscape:pagecheckerboard="0"
     showgrid="false"
     inkscape:zoom="0.20605469"
     inkscape:cx="-1841.7441"
     inkscape:cy="519.27962"
     inkscape:window-width="2560"
     inkscape:window-height="1043"
     inkscape:window-x="0"
     inkscape:window-y="0"
     inkscape:window-maximized="1"
     inkscape:current-layer="svg1087" />
  <rect
     style="font-variation-settings:normal;vector-effect:none;fill:#008bd0;fill-opacity:1;stroke-width:41.9214;stroke-linecap:butt;stroke-linejoin:miter;stroke-miterlimit:4;stroke-dasharray:none;stroke-dashoffset:0;stroke-opacity:1;-inkscape-stroke:none;paint-order:stroke markers fill;stop-color:#000000"
     id="rect1237"
     width="1024"
     height="1024"
     x="0"
     y="0"
     ry="161.90802" />
  <path
     d="m 237.00105,392.12316 c 0,-73.52336 28.26872,-137.62642 64.26947,-179.65138 l -0.0898,-0.78047 C 341.80095,162.66948 412.88682,112 511.1875,112 c 47.52574,0 83.67805,12.7703 83.67805,12.7703 l -0.24063,0.25469 0.64688,-0.25469 c 67.71087,22.20388 125.70925,68.62337 160.66312,137.21002 0.19297,-0.032 31.06481,53.52104 31.06481,130.55456 0,82.38898 -31.27731,141.29752 -31.27731,141.29752 -19.61951,41.3734 -57.62338,90.97882 -78.31789,117.07332 l -4.98203,6.25312 c -3.78593,4.73203 -6.60624,8.22187 -8.09608,10.14452 -32.49607,41.19449 -65.80463,84.03664 -92.20851,132.23503 -13.40467,25.12888 -21.93513,51.49292 -32.90231,86.09679 C 533.93514,901.70079 527.02967,912 512,912 c -13.81092,0 -20.31013,-6.1789 -27.2156,-26.36482 -11.77967,-36.66324 -18.27889,-57.26088 -34.12106,-87.74444 -12.99842,-23.48123 -37.7773,-62.20385 -62.14916,-93.09991 v 0 l -7.43436,-9.96952 C 342.97126,644.5612 291.60881,588.055 263.80962,523.94647 v 0 c 0,0 -26.80935,-53.96479 -26.80935,-131.82252 z M 512.00078,284.6053 c -45.39761,0 -73.80852,29.34919 -79.97336,36.39293 l -1.08281,1.27578 c -0.12344,0.15078 -0.18515,0.23047 -0.18515,0.23047 l -0.0844,-0.005 0.025,0.025 c 0.0594,-0.0203 0.0586,-0.0195 0.0563,-0.0172 l 0.40938,0.40859 -5.43828,6.51796 c -7.0289,10.71952 -18.93436,33.12028 -18.93436,61.86479 0,59.32025 47.11949,106.28192 105.20693,106.28192 38.98043,0 64.94759,-21.53357 75.50383,-32.31246 l 4.92422,-5.99844 3.65546,-4.53124 2.66328,-3.44062 c 7.09687,-11.27968 18.05311,-33.11482 18.05311,-60.41088 0,-60.55619 -50.36948,-106.28193 -104.80068,-106.28193 z"
     fill="#ffffff"
     id="path1085"
     style="stroke-width:0.781249" />
</svg>
