<?xml version="1.0" encoding="UTF-8" standalone="no"?>
<svg
   viewBox="0 0 1024 1024"
   style="position: relative; top: 5.2px; width: 15.6px;"
   version="1.1"
   id="svg4"
   sodipodi:docname="icon-facebook.svg"
   inkscape:version="1.1.2 (0a00cf5339, 2022-02-04)"
   inkscape:export-filename="/home/thiago/Documentos/togger/mail/icon-facebook.png"
   inkscape:export-xdpi="2.8099999"
   inkscape:export-ydpi="2.8099999"
   xmlns:inkscape="http://www.inkscape.org/namespaces/inkscape"
   xmlns:sodipodi="http://sodipodi.sourceforge.net/DTD/sodipodi-0.dtd"
   xmlns="http://www.w3.org/2000/svg"
   xmlns:svg="http://www.w3.org/2000/svg">
  <defs
     id="defs8" />
  <sodipodi:namedview
     id="namedview6"
     pagecolor="#ffffff"
     bordercolor="#666666"
     borderopacity="1.0"
     inkscape:pageshadow="2"
     inkscape:pageopacity="0.0"
     inkscape:pagecheckerboard="0"
     showgrid="false"
     inkscape:zoom="0.41210938"
     inkscape:cx="-69.156398"
     inkscape:cy="480.45498"
     inkscape:window-width="2560"
     inkscape:window-height="1043"
     inkscape:window-x="0"
     inkscape:window-y="0"
     inkscape:window-maximized="1"
     inkscape:current-layer="svg4" />
  <rect
     style="font-variation-settings:normal;vector-effect:none;fill:#008bd0;fill-opacity:1;stroke-width:41.9214;stroke-linecap:butt;stroke-linejoin:miter;stroke-miterlimit:4;stroke-dasharray:none;stroke-dashoffset:0;stroke-opacity:1;-inkscape-stroke:none;paint-order:stroke markers fill;stop-color:#000000"
     id="rect1237"
     width="1024"
     height="1024"
     x="0"
     y="0"
     ry="161.90802" />
  <path
     d="M 912,514.43281 C 912,293.37734 732.91406,114.17578 512,114.17578 c -220.91406,0 -400,179.20156 -400,400.25703 0,199.77734 146.27344,365.36797 337.5,395.39141 V 630.13281 H 347.9375 v -115.7 H 449.5 v -88.18125 c 0,-100.31484 59.71875,-155.725 151.08594,-155.725 43.75,0 89.53906,7.81719 89.53906,7.81719 v 98.50078 H 639.6875 C 590,376.84453 574.5,407.70078 574.5,439.38515 v 75.04766 h 110.9375 l -17.73438,115.7 H 574.5 V 909.82422 C 765.72656,879.80078 912,714.21015 912,514.43281 Z"
     fill="#ffffff"
     id="path2"
     style="stroke-width:0.78125" />
</svg>
