<?xml version="1.0" encoding="UTF-8" standalone="no"?>
<svg
   viewBox="0 0 1024 1024"
   style="position: relative; top: 5.2px; width: 15.6px;"
   version="1.1"
   id="svg892"
   sodipodi:docname="icon-instagram.svg"
   inkscape:version="1.4.2 (1:1.4.2+202505120737+ebf0e940d0)"
   inkscape:export-filename="/home/thiago/Documentos/togger/mail/icon-instagram.png"
   inkscape:export-xdpi="2.8099999"
   inkscape:export-ydpi="2.8099999"
   xmlns:inkscape="http://www.inkscape.org/namespaces/inkscape"
   xmlns:sodipodi="http://sodipodi.sourceforge.net/DTD/sodipodi-0.dtd"
   xmlns="http://www.w3.org/2000/svg"
   xmlns:svg="http://www.w3.org/2000/svg">
  <defs
     id="defs896" />
  <sodipodi:namedview
     id="namedview894"
     pagecolor="#ffffff"
     bordercolor="#666666"
     borderopacity="1.0"
     inkscape:pageshadow="2"
     inkscape:pageopacity="0.0"
     inkscape:pagecheckerboard="0"
     showgrid="false"
     inkscape:zoom="0.41210938"
     inkscape:cx="-186.8436"
     inkscape:cy="569.02369"
     inkscape:window-width="2504"
     inkscape:window-height="1371"
     inkscape:window-x="2616"
     inkscape:window-y="32"
     inkscape:window-maximized="1"
     inkscape:current-layer="svg892"
     inkscape:showpageshadow="2"
     inkscape:deskcolor="#d1d1d1" />
  <rect
     style="font-variation-settings:normal;vector-effect:none;fill:#64bb46;fill-opacity:1;stroke-width:41.9214;stroke-linecap:butt;stroke-linejoin:miter;stroke-miterlimit:4;stroke-dasharray:none;stroke-dashoffset:0;stroke-opacity:1;-inkscape-stroke:none;paint-order:stroke markers fill;stop-color:#000000"
     id="rect1237"
     width="1024"
     height="1024"
     x="0"
     y="0"
     ry="161.90802"
     inkscape:export-filename="icon-instagram.png"
     inkscape:export-xdpi="2.8099999"
     inkscape:export-ydpi="2.8099999" />
  <path
     d="m 645.32321,512 c 0,-73.43034 -59.88974,-133.3232 -133.32321,-133.3232 -73.43346,0 -133.3232,59.88974 -133.3232,133.3232 0,73.43347 59.88974,133.32321 133.3232,133.32321 73.43347,0 133.32321,-59.88974 133.32321,-133.32321 z m 71.86941,0 c 0,113.5334 -91.66,205.19106 -205.19105,205.19106 -113.53106,0 -205.19106,-91.66 -205.19106,-205.19106 0,-113.53105 91.66,-205.19105 205.19106,-205.19105 113.53105,0 205.19105,91.66 205.19105,205.19105 z m 56.246,-213.52463 c 0,26.56011 -21.35231,47.91242 -47.91242,47.91242 -26.56011,0 -47.91242,-21.35231 -47.91242,-47.91242 0,-26.55933 21.35231,-47.91242 47.91242,-47.91242 26.56011,0 47.91242,21.35231 47.91242,47.91242 z M 512.00079,183.90134 c -58.32803,0 -183.31766,-4.68671 -235.91757,16.14529 -18.22731,7.29061 -31.76713,16.14529 -45.82883,30.20464 -14.06169,14.05935 -22.91403,27.60151 -30.20464,45.82883 -20.83277,52.59991 -16.14528,177.58954 -16.14528,235.91756 0,58.32803 -4.68671,183.31766 16.14528,235.91757 7.29061,18.22731 16.14529,31.76713 30.20464,45.82882 14.05935,14.0617 27.60152,22.91403 45.82883,30.20464 52.59991,20.83278 177.58954,16.14529 235.91757,16.14529 58.32802,0 183.31765,4.68671 235.91756,-16.14529 18.22731,-7.29061 31.76713,-16.14528 45.82883,-30.20464 14.06169,-14.05935 22.91402,-27.60151 30.20464,-45.82882 20.83277,-52.59991 16.14528,-177.58954 16.14528,-235.91757 0,-58.32802 4.68671,-183.31765 -16.14528,-235.91756 -7.29062,-18.22732 -16.14529,-31.76714 -30.20464,-45.82883 -14.05935,-14.0617 -27.60152,-22.91403 -45.82883,-30.20464 C 695.31844,179.21385 570.32881,183.90134 512.00079,183.90134 Z M 911.96729,512 c 0,55.20304 0.52109,109.88654 -2.60312,165.09035 -3.125,64.05848 -17.70778,120.82401 -64.57802,167.6958 -46.87023,46.8718 -103.63732,61.45302 -167.6958,64.57802 -55.20303,3.12499 -109.88653,2.60312 -165.09035,2.60312 -55.20381,0 -109.88653,0.52109 -165.09034,-2.60312 -64.05848,-3.125 -120.82401,-17.70778 -167.69581,-64.57802 -46.87179,-46.87023 -61.45302,-103.63732 -64.57801,-167.6958 -3.125,-55.20303 -2.60312,-109.88653 -2.60312,-165.09035 0,-55.20381 -0.5211,-109.88653 2.60312,-165.09034 3.12499,-64.05848 17.70778,-120.82401 64.57801,-167.69581 46.87024,-46.87179 103.63733,-61.45302 167.69581,-64.57801 55.20303,-3.125 109.88653,-2.60312 165.09034,-2.60312 55.20382,0 109.88654,-0.5211 165.09035,2.60312 64.05848,3.12499 120.82401,17.70778 167.6958,64.57801 46.8718,46.87024 61.45302,103.63733 64.57802,167.69581 3.12499,55.20303 2.60312,109.88653 2.60312,165.09034 z"
     fill="#ffffff"
     id="path890"
     style="stroke-width:0.781249" />
</svg>
