<?xml version="1.0" encoding="UTF-8" standalone="no"?>
<svg
   viewBox="0 0 1024 1024"
   style="position: relative; top: 5.2px; width: 15.6px;"
   version="1.1"
   id="svg827"
   sodipodi:docname="icon-github.svg"
   inkscape:version="1.4.2 (1:1.4.2+202505120737+ebf0e940d0)"
   inkscape:export-filename="icon-github.png"
   inkscape:export-xdpi="2.8099999"
   inkscape:export-ydpi="2.8099999"
   xmlns:inkscape="http://www.inkscape.org/namespaces/inkscape"
   xmlns:sodipodi="http://sodipodi.sourceforge.net/DTD/sodipodi-0.dtd"
   xmlns="http://www.w3.org/2000/svg"
   xmlns:svg="http://www.w3.org/2000/svg">
  <defs
     id="defs831" />
  <sodipodi:namedview
     id="namedview829"
     pagecolor="#ffffff"
     bordercolor="#666666"
     borderopacity="1.0"
     inkscape:pageshadow="2"
     inkscape:pageopacity="0.0"
     inkscape:pagecheckerboard="0"
     showgrid="false"
     inkscape:zoom="0.20605469"
     inkscape:cx="320.30331"
     inkscape:cy="99.48815"
     inkscape:window-width="2504"
     inkscape:window-height="1371"
     inkscape:window-x="2616"
     inkscape:window-y="32"
     inkscape:window-maximized="1"
     inkscape:current-layer="svg827"
     inkscape:showpageshadow="2"
     inkscape:deskcolor="#d1d1d1" />
  <rect
     style="font-variation-settings:normal;vector-effect:none;fill:#64bb46;fill-opacity:1;stroke-width:41.9214;stroke-linecap:butt;stroke-linejoin:miter;stroke-miterlimit:4;stroke-dasharray:none;stroke-dashoffset:0;stroke-opacity:1;-inkscape-stroke:none;paint-order:stroke markers fill;stop-color:#000000"
     id="rect1237"
     width="1024"
     height="1024"
     x="0"
     y="0"
     ry="161.90802" />
  <path
     d="m 512.00625,112 c -220.8889,0 -400.00596,183.6108 -400.00596,410.12548 0,181.20378 114.61242,334.93648 273.54355,389.16925 19.98905,3.79531 27.33748,-8.89921 27.33748,-19.73124 0,-9.77577 -0.375,-42.08746 -0.54375,-76.35697 C 301.05015,840.019 277.56892,766.81593 277.56892,766.81593 259.37987,719.4144 233.15645,706.80582 233.15645,706.80582 c -36.2906,-25.45545 2.74219,-24.93123 2.74219,-24.93123 40.15622,2.8914 61.30933,42.26715 61.30933,42.26715 35.68122,62.69683 93.57493,44.5695 116.40929,34.0906 3.58437,-26.5031 13.94686,-44.60153 25.39529,-54.84136 -88.8515,-10.36718 -182.24674,-45.53825 -182.24674,-202.68579 0,-44.77575 15.62811,-81.36401 41.21872,-110.0843 -4.15312,-10.33359 -17.85467,-52.04449 3.86875,-108.53976 0,0 33.59841,-11.01562 110.03117,42.04606 31.9031,-9.08984 66.12182,-13.64608 100.12024,-13.80468 33.98591,0.1586 68.2312,4.71484 100.19992,13.80468 76.35464,-53.06324 109.88742,-42.04606 109.88742,-42.04606 21.77499,56.49527 8.08593,98.20617 3.93438,108.53976 25.6406,28.72185 41.16715,65.30933 41.16715,110.0843 0,157.52566 -93.57649,192.20689 -182.6483,202.35922 14.34686,12.72812 27.1281,37.68513 27.1281,75.9476 0,54.87731 -0.46562,99.0429 -0.46562,112.5507 0,10.9164 7.20468,23.70546 27.4781,19.67811 158.8452,-54.29058 273.31387,-207.96781 273.31387,-389.11456 0,-226.51546 -179.08893,-410.12548 -399.99346,-410.12548 v 0 z"
     fill="#ffffff"
     id="path825"
     style="stroke-width:0.781249" />
</svg>
