<?xml version="1.0" encoding="UTF-8" standalone="no"?>
<svg
   height="15"
   width="11.707"
   version="1.1"
   id="svg7"
   sodipodi:docname="lock.svg"
   inkscape:export-filename="lock.png"
   inkscape:export-xdpi="96"
   inkscape:export-ydpi="96"
   inkscape:version="1.4.2 (1:1.4.2+202505120737+ebf0e940d0)"
   xmlns:inkscape="http://www.inkscape.org/namespaces/inkscape"
   xmlns:sodipodi="http://sodipodi.sourceforge.net/DTD/sodipodi-0.dtd"
   xmlns="http://www.w3.org/2000/svg"
   xmlns:svg="http://www.w3.org/2000/svg">
  <defs
     id="defs7" />
  <sodipodi:namedview
     id="namedview7"
     pagecolor="#ffffff"
     bordercolor="#000000"
     borderopacity="0.25"
     inkscape:showpageshadow="2"
     inkscape:pageopacity="0.0"
     inkscape:pagecheckerboard="0"
     inkscape:deskcolor="#d1d1d1"
     inkscape:zoom="45.254834"
     inkscape:cx="9.4686017"
     inkscape:cy="10.109417"
     inkscape:window-width="2504"
     inkscape:window-height="1371"
     inkscape:window-x="2616"
     inkscape:window-y="32"
     inkscape:window-maximized="1"
     inkscape:current-layer="svg7" />
  <path
     d="M5.854 1.097c-2.02 0-3.659 1.902-3.659 4.39v.732c0 .366.273.732.61.732s.61-.366.61-.732v-.732c0-1.756 1.092-3.146 2.439-3.146s2.439 1.39 2.439 3.146v.732c0 .366.273.732.61.732s.61-.366.61-.732v-.732c0-2.488-1.638-4.39-3.659-4.39z"
     fill="#7f8c8d"
     id="path1" />
  <path
     d="M1.463 5.487C.655 5.487 0 6.146 0 6.951v5.122c0 .805.655 1.463 1.463 1.463h8.78c.809 0 1.463-.659 1.463-1.463V6.951c0-.805-.655-1.463-1.463-1.463z"
     fill="#f1c40f"
     id="path2" />
  <path
     d="M5.854 0a4.4 4.4 0 0 0-4.39 4.39v.732a.71.71 0 0 0 .732.732.71.71 0 0 0 .732-.732V4.39c0-1.683 1.31-3.073 2.927-3.073S8.78 2.707 8.78 4.39v.732a.71.71 0 0 0 .732.732.71.71 0 0 0 .732-.732V4.39A4.4 4.4 0 0 0 5.854 0z"
     fill="#bdc3c7"
     id="path3" />
  <path
     d="M1.463 6.951C.655 6.951 0 7.609 0 8.414v5.122C0 14.341.655 15 1.463 15h8.78c.809 0 1.463-.659 1.463-1.463V8.414c0-.805-.655-1.463-1.463-1.463z"
     fill="#f39c12"
     id="path4" />
  <path
     id="path8"
     d="M 8.015625 5.4882812 C 8.139804 6.1815504 8.7273426 6.7226562 9.4453125 6.7226562 C 10.127182 6.7226563 10.699199 6.209857 10.861328 5.625 C 10.673489 5.5370027 10.463191 5.4882812 10.242188 5.4882812 L 8.015625 5.4882812 z "
     style="fill:#7f8c8d;fill-opacity:1" />
  <path
     id="path5"
     style="fill:#7f8c8d;fill-opacity:1"
     d="M 1.4628906 5.4863281 C 1.3863737 5.4863281 1.3116277 5.4925222 1.2382812 5.5039062 C 1.1383377 5.522668 1.0409021 5.5503218 0.94921875 5.5800781 C 0.90620405 5.5962543 0.86520303 5.6147563 0.82421875 5.6347656 C 0.98493023 6.282238 1.572779 6.7335981 2.2402344 6.7226562 A 1.48 1.48 0 0 0 3.6796875 5.4863281 L 1.4628906 5.4863281 z " />
  <path
     d="M5.854.366c-2.425 0-4.39 1.902-4.39 4.39v.732a.76.76 0 0 0 .732.732.76.76 0 0 0 .732-.732v-.732c0-1.756 1.31-3.146 2.927-3.146S8.78 3 8.78 4.756v.732a.76.76 0 0 0 .732.732.76.76 0 0 0 .732-.732v-.732c0-2.488-1.965-4.39-4.39-4.39z"
     fill="#95a5a6"
     id="path6" />
  <path
     d="M1.463 8.414h8.78v.732h-8.78zm0 1.463h8.78v.732h-8.78zm0 1.463h8.78v.732h-8.78zm0 1.463h8.78v.732h-8.78z"
     fill="#e67e22"
     id="path7" />
</svg>
