<svg xmlns="http://www.w3.org/2000/svg" height="15" width="11.707" xmlns:v="https://vecta.io/nano"><path d="M5.854 1.097c-2.02 0-3.659 1.902-3.659 4.39v.732c0 .366.273.732.61.732s.61-.366.61-.732v-.732c0-1.756 1.092-3.146 2.439-3.146s2.439 1.39 2.439 3.146v.732c0 .366.273.732.61.732s.61-.366.61-.732v-.732c0-2.488-1.638-4.39-3.659-4.39z" fill="#7f8c8d"/><path d="M1.463 5.487C.655 5.487 0 6.146 0 6.951v5.122c0 .805.655 1.463 1.463 1.463h8.78c.809 0 1.463-.659 1.463-1.463V6.951c0-.805-.655-1.463-1.463-1.463z" fill="#f1c40f"/><path d="M5.854 0a4.4 4.4 0 0 0-4.39 4.39v.732a.71.71 0 0 0 .732.732.71.71 0 0 0 .732-.732V4.39c0-1.683 1.31-3.073 2.927-3.073S8.78 2.707 8.78 4.39v.732a.71.71 0 0 0 .732.732.71.71 0 0 0 .732-.732V4.39A4.4 4.4 0 0 0 5.854 0z" fill="#bdc3c7"/><path d="M1.463 6.951C.655 6.951 0 7.609 0 8.414v5.122C0 14.341.655 15 1.463 15h8.78c.809 0 1.463-.659 1.463-1.463V8.414c0-.805-.655-1.463-1.463-1.463z" fill="#f39c12"/><path d="M1.703 5.487c-.249 0-.481.073-.686.146.157.653.747 1.109 1.418 1.098a1.48 1.48 0 0 0 1.441-1.244zm8.389-.073a1.16 1.16 0 0 1 .686.22c-.162.585-.735 1.098-1.417 1.098-.746 0-1.35-.585-1.441-1.317z" fill="#7f8c8d"/><path d="M5.854.366c-2.425 0-4.39 1.902-4.39 4.39v.732a.76.76 0 0 0 .732.732.76.76 0 0 0 .732-.732v-.732c0-1.756 1.31-3.146 2.927-3.146S8.78 3 8.78 4.756v.732a.76.76 0 0 0 .732.732.76.76 0 0 0 .732-.732v-.732c0-2.488-1.965-4.39-4.39-4.39z" fill="#95a5a6"/><path d="M1.463 8.414h8.78v.732h-8.78zm0 1.463h8.78v.732h-8.78zm0 1.463h8.78v.732h-8.78zm0 1.463h8.78v.732h-8.78z" fill="#e67e22"/></svg>