<?xml version="1.0" encoding="UTF-8" standalone="no"?>
<svg
   height="30"
   width="30"
   version="1.1"
   id="svg18"
   sodipodi:docname="lock_mono.svg"
   inkscape:version="1.1.2 (0a00cf5339, 2022-02-04)"
   xmlns:inkscape="http://www.inkscape.org/namespaces/inkscape"
   xmlns:sodipodi="http://sodipodi.sourceforge.net/DTD/sodipodi-0.dtd"
   xmlns="http://www.w3.org/2000/svg"
   xmlns:svg="http://www.w3.org/2000/svg">
  <defs
     id="defs22" />
  <sodipodi:namedview
     id="namedview20"
     pagecolor="#ffffff"
     bordercolor="#666666"
     borderopacity="1.0"
     inkscape:pageshadow="2"
     inkscape:pageopacity="0.0"
     inkscape:pagecheckerboard="0"
     showgrid="false"
     inkscape:zoom="19.893271"
     inkscape:cx="18.925998"
     inkscape:cy="15.10561"
     inkscape:window-width="2498"
     inkscape:window-height="1016"
     inkscape:window-x="2622"
     inkscape:window-y="27"
     inkscape:window-maximized="1"
     inkscape:current-layer="svg18" />
  <g
     id="g1447"
     style="font-variation-settings:normal;opacity:1;vector-effect:none;fill:#008bd0;fill-opacity:1;stroke-width:41.92139248;stroke-linecap:butt;stroke-linejoin:miter;stroke-miterlimit:4;stroke-dasharray:none;stroke-dashoffset:0;stroke-opacity:1;-inkscape-stroke:none;stop-color:#000000;stop-opacity:1">
    <path
       d="m 6.219515,10.609755 c -1.6170736,0 -2.92683,1.317074 -2.92683,2.92683 V 23.78049 c 0,1.609757 1.3097564,2.92683 2.92683,2.92683 h 17.56098 c 1.617074,0 2.92683,-1.317073 2.92683,-2.92683 V 13.536585 c 0,-1.609756 -1.309756,-2.92683 -2.92683,-2.92683 z"
       fill="#f1c40f"
       id="path4"
       style="fill:#008bd0;stroke-width:41.92139248;font-variation-settings:normal;vector-effect:none;fill-opacity:1;stroke-linecap:butt;stroke-linejoin:miter;stroke-miterlimit:4;stroke-dasharray:none;stroke-dashoffset:0;stroke-opacity:1;-inkscape-stroke:none;stop-color:#000000;stop-opacity:1" />
    <path
       d="m 6.219515,13.536585 c -1.6170736,0 -2.92683,1.317074 -2.92683,2.92683 V 26.70732 c 0,1.609756 1.3097564,2.92683 2.92683,2.92683 h 17.56098 c 1.617074,0 2.92683,-1.317074 2.92683,-2.92683 V 16.463415 c 0,-1.609756 -1.309756,-2.92683 -2.92683,-2.92683 z"
       fill="#f39c12"
       id="path8"
       style="fill:#008bd0;stroke-width:41.92139248;font-variation-settings:normal;vector-effect:none;fill-opacity:1;stroke-linecap:butt;stroke-linejoin:miter;stroke-miterlimit:4;stroke-dasharray:none;stroke-dashoffset:0;stroke-opacity:1;-inkscape-stroke:none;stop-color:#000000;stop-opacity:1" />
    <path
       d="m 15.000005,0.36585 c -4.849757,0 -8.78049,3.804879 -8.78049,8.78049 v 1.463415 c 0,0.731708 0.6556099,1.463415 1.463415,1.463415 0.8078051,0 1.463415,-0.731707 1.463415,-1.463415 V 9.14634 c 0,-3.512196 2.620976,-6.2926845 5.85366,-6.2926845 3.232684,0 5.85366,2.7804885 5.85366,6.2926845 v 1.463415 c 0,0.731708 0.65561,1.463415 1.463415,1.463415 0.807805,0 1.463415,-0.731707 1.463415,-1.463415 V 9.14634 c 0,-4.975611 -3.930733,-8.78049 -8.78049,-8.78049 z"
       fill="#95a5a6"
       id="path12"
       style="fill:#008bd0;stroke-width:41.92139248;font-variation-settings:normal;vector-effect:none;fill-opacity:1;stroke-linecap:butt;stroke-linejoin:miter;stroke-miterlimit:4;stroke-dasharray:none;stroke-dashoffset:0;stroke-opacity:1;-inkscape-stroke:none;stop-color:#000000;stop-opacity:1" />
  </g>
  <path
     d="m 6.219515,16.463415 h 17.56098 V 17.92683 H 6.219515 Z m 0,2.92683 h 17.56098 V 20.85366 H 6.219515 Z m 0,2.92683 h 17.56098 V 23.78049 H 6.219515 Z m 0,2.92683 h 17.56098 V 26.70732 H 6.219515 Z"
     fill="#e67e22"
     id="path14"
     style="fill:#ffffff;stroke-width:1.46342" />
</svg>
