<svg xmlns="http://www.w3.org/2000/svg" xmlns:xlink="http://www.w3.org/1999/xlink" width="300" height="300" shape-rendering="crispEdges" viewBox="0 0 79.38 79.38">
  <g fill="#b1b3b4" fill-rule="evenodd">
    <path d="M9.64 59.34v4.2h2.37v3.24H9.64v3.94c0 .44.1.79.18.97.18.17.36.35.7.35a5.44 5.43 0 0 0 1.4-.27l.26 2.98a11.98 11.98 0 0 1-2.97.35 5.5 5.5 0 0 1-2.36-.35 2.5 2.5 0 0 1-1.06-1.4c-.26-.52-.34-1.4-.34-2.72v-3.85H3.88v-3.24h1.57v-2zm2.71 9.88a5.77 5.77 0 0 1 1.75-4.19c1.14-1.22 2.72-1.75 4.64-1.75 2.18 0 3.94.7 5.08 2a5.88 5.88 0 0 1 1.3 3.85c0 1.76-.51 3.15-1.66 4.3-1.14 1.14-2.7 1.66-4.72 1.66a6.48 6.48 0 0 1-4.38-1.4 5.66 5.66 0 0 1-2.01-4.46zm4.3 0c0 .97.17 1.76.6 2.19.35.52.88.7 1.49.7s1.13-.18 1.57-.7c.35-.44.53-1.22.53-2.27 0-.97-.18-1.67-.53-2.1-.44-.52-.96-.7-1.48-.7-.7 0-1.13.18-1.58.7-.44.44-.6 1.22-.6 2.18zm17.14-5.69h4.03v11.2a5.1 5.1 0 0 1-.45 2.01 4.1 4.1 0 0 1-1.22 1.5c-.44.43-1.14.69-1.84.87a11.98 11.98 0 0 1-2.63.26c-2.27 0-3.76-.35-4.63-.96a3.44 3.44 0 0 1-1.22-2.72v-.6l4.11.51a3.22 3.22 0 0 0 .52.79c.35.18.7.34 1.22.34.61 0 1.06-.17 1.31-.52.36-.34.52-.87.52-1.75V72.7a3.44 3.44 0 0 1-1.3 1.05 4.1 4.1 0 0 1-2.1.53 4.33 4.33 0 0 1-3.67-1.93 6.77 6.77 0 0 1-.97-3.67c0-1.75.44-3.06 1.32-3.94a3.8 3.8 0 0 1 3.24-1.48 5.1 5.1 0 0 1 2.19.44 5.4 5.4 0 0 1 1.57 1.58zm-4.03 5.52c0 .78.18 1.4.53 1.75.35.43.78.6 1.32.6s1.05-.17 1.4-.6c.34-.43.51-1.05.51-1.84s-.17-1.4-.6-1.84a1.55 1.55 0 0 0-1.31-.61c-.61 0-1.06.17-1.32.52-.35.44-.53 1.05-.53 2zm17.5-5.52h4.03v11.2a5.1 5.1 0 0 1-.44 2.01 4.2 4.2 0 0 1-1.22 1.5 4.3 4.3 0 0 1-1.93.87 10.87 10.87 0 0 1-2.54.26c-2.27 0-3.85-.35-4.64-.96a3.27 3.27 0 0 1-1.3-2.72v-.6l4.19.51a1.33 1.33 0 0 0 .52.79c.25.18.7.34 1.14.34.61 0 1.13-.17 1.4-.52.35-.34.44-.87.44-1.75V72.7c-.44.52-.79.87-1.22 1.05-.7.36-1.4.53-2.1.53a4.21 4.21 0 0 1-3.67-1.93 6.1 6.1 0 0 1-1.05-3.67 5.7 5.7 0 0 1 1.32-3.94 4.1 4.1 0 0 1 3.33-1.48 5.32 5.32 0 0 1 2.18.44 5.4 5.4 0 0 1 1.58 1.58zm-4.02 5.52c0 .78.18 1.4.52 1.75.35.43.79.6 1.31.6s.97-.17 1.31-.6c.44-.44.61-1.05.61-1.84a2.88 2.88 0 0 0-.61-1.84c-.34-.45-.79-.61-1.4-.61a1.77 1.77 0 0 0-1.32.52 3.8 3.8 0 0 0-.43 2zm21.79 1.22h-8.58c.09.7.27 1.13.52 1.48.45.52.97.79 1.67.79.43 0 .78-.18 1.13-.35a2.77 2.77 0 0 0 .79-.7l4.2.35a6.28 6.28 0 0 1-2.27 2.45c-.97.61-2.28.79-3.94.79a7.95 7.95 0 0 1-3.5-.61 5.3 5.3 0 0 1-2.1-2.1 5.36 5.36 0 0 1-.88-3.15 5.7 5.7 0 0 1 1.66-4.19c1.15-1.22 2.72-1.75 4.64-1.75 1.66 0 2.88.26 3.76.7a6.54 6.54 0 0 1 2.19 2.18 8.43 8.43 0 0 1 .7 3.6zm-4.37-2.11c-.1-.79-.27-1.4-.61-1.75a2.22 2.22 0 0 0-1.5-.52 1.89 1.89 0 0 0-1.57.78c-.26.36-.44.88-.52 1.49zm5.15-4.64h4.03v1.93a4.66 4.66 0 0 1 1.22-1.75c.34-.27.88-.44 1.49-.44s1.3.17 2.1.6l-1.4 3.16a2.35 2.35 0 0 0-1.15-.36c-.6 0-1.05.27-1.3.7-.45.61-.7 1.84-.7 3.67v3.76h-4.3zm7.25-8.91c0 .66-.17 1.1-.5 1.37s-.88.39-1.71.39h-3.2v.22c0 .28-.05.44-.1.56-.12.1-.28.16-.45.16s-.33-.05-.44-.16c-.11-.12-.17-.34-.17-.56v-.22h-.99c-.5 0-.82-.06-1.04-.17-.22-.1-.33-.33-.33-.6s.1-.5.33-.66c.17-.11.5-.17.93-.17h1.1v-.6c0-.22.06-.39.17-.5s.22-.22.44-.22.33.11.44.28c.11.17.11.39.11.7v.34h3.09c.39 0 .66-.05.82-.11.17-.11.22-.22.22-.44 0-.23-.05-.34-.05-.4 0-.1 0-.16-.06-.21 0-.34.06-.45.17-.56s.22-.1.38-.1c.28 0 .5.1.61.38s.23.72.23 1.26zm-5.56-4.57c0 .44.17.76.44 1.04s.72.33 1.21.39v-2.92c-.5 0-.93.17-1.2.39a1.44 1.44 0 0 0-.45 1.1zm5.56-.23a3.6 3.6 0 0 1-.88 2.48 3.5 3.5 0 0 1-2.53.87 3.55 3.55 0 0 1-2.42-.87c-.6-.55-.87-1.32-.87-2.32a3.22 3.22 0 0 1 .76-2.2 2.5 2.5 0 0 1 1.99-.83c.39 0 .66.11.83.33s.22.56.22 1v3.18c.56 0 .99-.1 1.32-.44.33-.33.5-.66.5-1.15 0-.34-.11-.72-.33-1.04l-.71-.88c-.11-.17-.11-.28-.11-.33 0-.17.05-.34.16-.45s.22-.1.4-.1c.43 0 .81.27 1.14.81.34.55.56 1.21.56 1.93zm0-6.6a3.3 3.3 0 0 1-.88 2.37c-.54.54-1.38.82-2.36.82-1.16 0-1.99-.28-2.59-.88s-.87-1.37-.87-2.36c0-.82.22-1.49.6-2.03.4-.54.83-.83 1.33-.83.22 0 .38.05.5.22.1.1.16.28.16.5 0 .16 0 .27-.1.39s-.18.16-.34.27a1.66 1.66 0 0 0-.56.5 1.44 1.44 0 0 0-.33.99c0 .5.17.88.56 1.2.38.34.87.4 1.6.4a2.55 2.55 0 0 0 1.53-.4c.34-.32.56-.71.56-1.2s-.11-.77-.33-1.04a2.94 2.94 0 0 0-.61-.5 1.19 1.19 0 0 1-.4-.22c-.16-.17-.21-.34-.21-.5s.05-.4.22-.5.28-.22.5-.22c.55 0 1.04.27 1.43.87.39.6.6 1.27.6 2.15zm0-8.86a.9.9 0 0 1-.28.61 1.4 1.4 0 0 1-.72.22h-2.8c-.56 0-1 .06-1.27.23-.28.16-.4.5-.4.87s.12.67.34.88a2 2 0 0 0 .67.44c.1 0 .27.06.5.06.27.05.55.05.93.05h2.04c.33 0 .55.06.72.22.17.17.28.34.28.61 0 .28-.11.45-.28.61s-.44.23-.72.23h-4.8c-.27 0-.5-.11-.66-.23s-.28-.33-.28-.55a.8.8 0 0 1 .28-.61c.17-.17.39-.17.67-.17h.16c-.27-.27-.55-.5-.72-.72a2.88 2.88 0 0 1-.39-1.43c0-.5.17-.93.4-1.26.21-.34.38-.5.71-.61.17-.11.34-.17.5-.22.17-.06.56-.06 1.05-.06h3.08c.28 0 .55.06.72.22.17.17.28.33.28.61zm-5.5-4.79c0 .5.22.88.55 1.15.39.34.93.45 1.65.45s1.16-.11 1.54-.45c.4-.33.56-.66.56-1.15s-.22-.88-.56-1.2a2.55 2.55 0 0 0-1.54-.4c-.76 0-1.26.11-1.65.45-.33.27-.56.66-.56 1.15zm5.5 0a3.3 3.3 0 0 1-.88 2.36c-.61.6-1.43.88-2.42.88-1.1 0-1.93-.28-2.47-.88a3.1 3.1 0 0 1-.93-2.36 3.1 3.1 0 0 1 .93-2.36c.55-.61 1.37-.88 2.47-.88.99 0 1.82.28 2.42.88s.88 1.37.88 2.36zm0-4.85c0 .28-.11.5-.28.61-.17.11-.39.22-.72.22H64.9c-.27 0-.55-.05-.7-.22-.16-.16-.23-.33-.23-.6s.06-.45.22-.62c.17-.1.45-.22.71-.22h7.16c.33 0 .55.11.72.22s.28.34.28.61zm-5.5-4.84c0 .5.22.93.55 1.2.39.28.93.4 1.65.4a2.55 2.55 0 0 0 1.54-.4c.34-.27.56-.7.56-1.2s-.22-.88-.56-1.16-.87-.44-1.54-.44a2.7 2.7 0 0 0-1.65.44 1.5 1.5 0 0 0-.56 1.16zm5.5 0a3.3 3.3 0 0 1-.88 2.36 3.3 3.3 0 0 1-2.42.87c-1.1 0-1.93-.27-2.47-.87a3 3 0 0 1-.93-2.36 3.1 3.1 0 0 1 .93-2.37c.55-.6 1.37-.87 2.47-.87a3.55 3.55 0 0 1 2.42.87c.55.61.88 1.38.88 2.37zm-5.45-6.88c0 .5.17.88.5 1.15.39.34.88.45 1.54.45s1.15-.11 1.54-.45c.34-.27.5-.66.5-1.15s-.16-.88-.5-1.15a2.33 2.33 0 0 0-1.43-.45c-.72 0-1.26.17-1.6.45s-.55.66-.55 1.15zm7.88.11a4.21 4.21 0 0 1-.5 2.1c-.34.55-.71.83-1.16.83a.63.63 0 0 1-.44-.17.85.85 0 0 1-.22-.55c0-.11.05-.22.1-.34s.12-.16.23-.27c.28-.22.44-.45.55-.61a1.89 1.89 0 0 0 .28-.99c0-.71-.16-1.15-.5-1.38a4.97 4.97 0 0 0-1.98-.27c.27.22.55.44.7.66a2.66 2.66 0 0 1 .34 1.38 2.44 2.44 0 0 1-.88 2.03c-.6.44-1.43.72-2.47.72-.99 0-1.76-.28-2.3-.72-.55-.45-.84-1.16-.84-2.03 0-.56.11-1.04.33-1.43.17-.22.45-.45.77-.72h-.22c-.28 0-.5-.06-.67-.17a.68.68 0 0 1-.28-.55c0-.34.12-.5.34-.61.16-.17.5-.23.87-.23h4.8c1.1 0 1.87.28 2.36.77.5.55.77 1.37.77 2.53zm-2.42-5.22a.8.8 0 0 1-.28.6 1.22 1.22 0 0 1-.72.23h-4.74a1.22 1.22 0 0 1-.7-.22.8.8 0 0 1 0-1.22c.16-.17.38-.23.66-.23h4.79c.28 0 .55.06.72.23.17.16.28.33.28.6zm-7.43 0c0 .22-.12.44-.23.6-.1.17-.33.23-.6.23s-.45-.11-.56-.28c-.11-.17-.22-.33-.22-.55 0-.23.05-.45.22-.61a.71.71 0 0 1 .55-.23c.28 0 .45.06.61.23.17.16.23.33.23.6zm4.12-6c.06.1.11.27.17.44s.05.33.1.6l.34 1.16c.17.33.45.5.72.5s.5-.05.67-.28c.16-.22.22-.44.22-.72 0-.55-.17-.98-.44-1.26-.34-.33-.84-.45-1.49-.45zm3.3-1.1c0 .16-.1.39-.33.55-.16.11-.33.28-.6.45.27.38.5.66.6.93.23.44.34.93.34 1.43 0 .66-.17 1.15-.5 1.54-.33.39-.82.55-1.38.55s-1.04-.22-1.32-.66a3.9 3.9 0 0 1-.66-1.71c-.06-.39-.17-.72-.22-1.04s-.17-.6-.23-.93c-.5 0-.76.1-.98.27-.23.17-.28.5-.28.94s.05.76.22.98c.06.17.22.33.44.5.23.17.34.22.45.28.1.11.16.28.16.44 0 .17-.05.34-.16.45a.7.7 0 0 1-.5.22c-.5 0-.93-.28-1.27-.77-.33-.49-.5-1.2-.5-2.1 0-1.04.23-1.76.62-2.13.38-.45.98-.67 1.93-.67h1.94c.16 0 .27 0 .44-.06s.33-.05.5-.1c.17-.06.28-.06.44-.12.4 0 .56.06.67.22.11.17.22.34.22.56z"/>
    <use xlink:href="#a" width="100%" height="100%" transform="matrix(11.1 0 0 11.1 -637.32 -426.28)"/>
    <use xlink:href="#a" width="100%" height="100%" x="1.88" y="-1.88" transform="matrix(11.1 0 0 11.1 -637.32 -426.28)"/>
    <use xlink:href="#a" width="100%" height="100%" x="1.88" y="1.88" transform="matrix(11.1 0 0 11.1 -637.32 -426.28)"/>
    <use xlink:href="#a" width="100%" height="100%" x="3.75" transform="matrix(11.1 0 0 11.1 -637.32 -426.28)"/>
  </g>
  <g fill="#008bd0" fill-rule="evenodd">
    <use xlink:href="#a" width="100%" height="100%" y="-1.88" transform="matrix(11.1 0 0 11.1 -637.32 -426.28)"/>
    <use xlink:href="#a" width="100%" height="100%" x="3.75" y="-1.88" transform="matrix(11.1 0 0 11.1 -637.32 -426.28)"/>
    <use xlink:href="#a" width="100%" height="100%" x="3.75" y="1.88" transform="matrix(11.1 0 0 11.1 -637.32 -426.28)"/>
    <path d="M11.55 41.76c-6.25.39-8.99 8.79-4.85 13.04 3.2 3.8 9.89 3.24 12.42-1.05 1.54-2.77 1.6-6.12 3.11-8.93 1.86-4.63 6.6-7.1 11.28-7.95 3.5-.4 7.01-2.75 7.52-6.46 1.45-5.1-3.58-10.3-8.68-9.52-3.52.25-6.16 3.28-6.82 6.6-1.52 4.9-3.55 10.44-8.63 12.64-1.7.8-3.52 1.3-5.35 1.63z"/>
  </g>
  <defs>
    <path id="a" d="M58.58 40.3a.7.7 0 0 0-.7.71c0 .4.31.71.7.71a.71.71 0 0 0 .71-.71.7.7 0 0 0-.7-.7z"/>
  </defs>
</svg>
