<?xml version="1.0" encoding="UTF-8" standalone="no"?>
<svg
   width="300"
   height="300"
   shape-rendering="crispEdges"
   viewBox="0 0 79.376 79.376"
   version="1.1"
   id="svg29"
   sodipodi:docname="logo.svg"
   inkscape:version="1.1.2 (0a00cf5339, 2022-02-04)"
   xmlns:inkscape="http://www.inkscape.org/namespaces/inkscape"
   xmlns:sodipodi="http://sodipodi.sourceforge.net/DTD/sodipodi-0.dtd"
   xmlns:xlink="http://www.w3.org/1999/xlink"
   xmlns="http://www.w3.org/2000/svg"
   xmlns:svg="http://www.w3.org/2000/svg">
  <sodipodi:namedview
     id="namedview31"
     pagecolor="#ffffff"
     bordercolor="#666666"
     borderopacity="1.0"
     inkscape:pageshadow="2"
     inkscape:pageopacity="0.0"
     inkscape:pagecheckerboard="0"
     showgrid="false"
     inkscape:zoom="1.9893271"
     inkscape:cx="187.24925"
     inkscape:cy="149.04537"
     inkscape:window-width="2498"
     inkscape:window-height="1016"
     inkscape:window-x="2622"
     inkscape:window-y="27"
     inkscape:window-maximized="1"
     inkscape:current-layer="svg29" />
  <path
     d="m 9.643264,59.340515 v 4.203748 h 2.362596 v 3.238771 H 9.643264 v 3.937548 c 0,0.443667 0.088736,0.787509 0.177472,0.964976 0.177472,0.177467 0.354944,0.354934 0.698796,0.354934 a 5.43508,5.4349247 0 0 0 1.397592,-0.2662 l 0.266208,2.972571 a 11.97936,11.979018 0 0 1 -2.972656,0.354934 c -1.05374,0 -1.841272,-0.08873 -2.362596,-0.354934 C 6.4044,74.480662 5.971812,73.959353 5.79434,73.349311 5.528132,72.828002 5.450488,71.951759 5.450488,70.631848 V 66.783034 H 3.875424 v -3.238771 h 1.575064 v -2.007595 z m 2.706448,9.88269 a 5.76784,5.7676752 0 0 1 1.752536,-4.192657 c 1.142476,-1.220085 2.71754,-1.752485 4.636456,-1.752485 2.185124,0 3.93766,0.698776 5.080136,2.007594 a 5.87876,5.878592 0 0 1 1.308856,3.848814 c 0,1.752486 -0.521324,3.150038 -1.6638,4.292482 -1.142476,1.142443 -2.706448,1.663752 -4.725192,1.663752 -1.841272,0 -3.238864,-0.443667 -4.38134,-1.397552 a 5.65692,5.6567583 0 0 1 -2.007652,-4.458857 z m 4.292604,0 c 0,0.964976 0.177472,1.752486 0.61006,2.185061 0.343852,0.521309 0.876268,0.698776 1.486328,0.698776 0.61006,0 1.131384,-0.177467 1.575064,-0.698776 0.343852,-0.443667 0.521324,-1.220085 0.521324,-2.273795 0,-0.964976 -0.177472,-1.663752 -0.521324,-2.096328 -0.44368,-0.521309 -0.965004,-0.698776 -1.486328,-0.698776 -0.698796,0 -1.131384,0.177467 -1.575064,0.698776 -0.44368,0.443667 -0.61006,1.220085 -0.61006,2.185062 z m 17.148232,-5.690034 h 4.026396 v 11.2026 a 5.10232,5.1021742 0 0 1 -0.44368,2.007595 4.10404,4.1039227 0 0 1 -1.22012,1.486285 c -0.44368,0.443668 -1.142476,0.698776 -1.841272,0.876243 a 11.97936,11.979018 0 0 1 -2.628804,0.266201 c -2.27386,0 -3.760188,-0.354934 -4.636456,-0.964977 a 3.43852,3.4384217 0 0 1 -1.22012,-2.717462 v -0.610043 l 4.115132,0.521309 a 3.21668,3.2165881 0 0 0 0.521324,0.78751 c 0.343852,0.177467 0.698796,0.343842 1.22012,0.343842 0.61006,0 1.05374,-0.177467 1.308856,-0.521309 0.354944,-0.343842 0.521324,-0.876243 0.521324,-1.752486 v -1.752486 a 3.43852,3.4384217 0 0 1 -1.308856,1.05371 4.10404,4.1039227 0 0 1 -2.096388,0.532401 4.32588,4.3257564 0 0 1 -3.671452,-1.929953 6.76612,6.7659266 0 0 1 -0.965004,-3.671347 c 0,-1.752486 0.44368,-3.061305 1.319948,-3.937548 0.787532,-1.053709 1.918916,-1.486285 3.238864,-1.486285 a 5.10232,5.1021742 0 0 1 2.185124,0.443667 c 0.521324,0.266201 1.05374,0.876243 1.575064,1.575019 z m -4.026396,5.512567 c 0,0.787509 0.177472,1.397552 0.521324,1.752486 0.354944,0.432575 0.787532,0.610042 1.319948,0.610042 0.532416,0 1.05374,-0.177467 1.397592,-0.610042 0.343852,-0.432576 0.521324,-1.05371 0.521324,-1.84122 0,-0.787509 -0.177472,-1.397552 -0.61006,-1.841219 a 1.55288,1.5528356 0 0 0 -1.308856,-0.610043 c -0.61006,0 -1.05374,0.177467 -1.319948,0.521309 -0.343852,0.443668 -0.521324,1.05371 -0.521324,2.007595 z m 17.503176,-5.512567 h 4.026396 v 11.2026 a 5.10232,5.1021742 0 0 1 -0.44368,2.007595 c -0.354944,0.610042 -0.698796,1.142443 -1.22012,1.486285 -0.521324,0.443668 -1.142476,0.698776 -1.930008,0.876243 a 10.87016,10.869849 0 0 1 -2.540068,0.266201 c -2.27386,0 -3.848924,-0.354934 -4.636456,-0.964977 -0.876268,-0.698776 -1.308856,-1.575019 -1.308856,-2.717462 v -0.610043 l 4.192776,0.521309 a 1.33104,1.331002 0 0 0 0.521324,0.78751 c 0.255116,0.177467 0.698796,0.343842 1.142476,0.343842 0.61006,0 1.131384,-0.177467 1.397592,-0.521309 0.354944,-0.343842 0.44368,-0.876243 0.44368,-1.752486 v -1.752486 c -0.44368,0.521309 -0.787532,0.876243 -1.22012,1.05371 -0.698796,0.354934 -1.397592,0.532401 -2.096388,0.532401 a 4.21496,4.2148395 0 0 1 -3.671452,-1.929953 6.1006,6.1004256 0 0 1 -1.05374,-3.671347 c 0,-1.752486 0.521324,-3.061305 1.319948,-3.937548 a 4.10404,4.1039227 0 0 1 3.3276,-1.486285 5.32416,5.3240078 0 0 1 2.185124,0.443667 c 0.521324,0.266201 1.05374,0.876243 1.575064,1.575019 z m -4.026396,5.512567 c 0,0.787509 0.177472,1.397552 0.521324,1.752486 0.343852,0.432575 0.787532,0.610042 1.308856,0.610042 0.521324,0 0.965004,-0.177467 1.308856,-0.610042 0.44368,-0.443668 0.61006,-1.05371 0.61006,-1.84122 a 2.88392,2.8838376 0 0 0 -0.61006,-1.841219 c -0.343852,-0.443667 -0.787532,-0.610043 -1.397592,-0.610043 a 1.77472,1.7746693 0 0 0 -1.319948,0.521309 c -0.266208,0.443668 -0.432588,1.05371 -0.432588,2.007595 z m 21.784688,1.220085 h -8.574116 c 0.08874,0.698776 0.266208,1.131352 0.521324,1.486285 0.44368,0.521309 0.965004,0.78751 1.6638,0.78751 0.432588,0 0.787532,-0.177467 1.131384,-0.354934 a 2.773,2.7729208 0 0 0 0.787532,-0.698776 l 4.203868,0.354934 c -0.61006,1.131352 -1.397592,1.918861 -2.27386,2.451262 -0.965004,0.610042 -2.27386,0.787509 -3.93766,0.787509 -1.486328,0 -2.628804,-0.177467 -3.505072,-0.610042 -0.876268,-0.521309 -1.575064,-1.131352 -2.096388,-2.096328 -0.61006,-0.876243 -0.876268,-1.929953 -0.876268,-3.150038 0,-1.752486 0.61006,-3.150038 1.6638,-4.192657 1.142476,-1.220085 2.71754,-1.752485 4.636456,-1.752485 1.6638,0 2.88392,0.2662 3.760188,0.698776 a 6.54428,6.544093 0 0 1 2.185124,2.185061 8.42992,8.4296791 0 0 1 0.698796,3.593705 z m -4.370248,-2.10742 c -0.08874,-0.787509 -0.266208,-1.397552 -0.61006,-1.752486 a 2.2184,2.2183366 0 0 0 -1.486328,-0.521309 1.88564,1.8855861 0 0 0 -1.575064,0.78751 c -0.266208,0.354933 -0.44368,0.876243 -0.521324,1.486285 z m 5.15778,-4.636323 h 4.026396 v 1.929952 a 4.65864,4.6585069 0 0 1 1.22012,-1.752485 c 0.343852,-0.266201 0.876268,-0.443668 1.486328,-0.443668 0.61006,0 1.308856,0.177467 2.096388,0.610043 l -1.397592,3.150038 c -0.44368,-0.266201 -0.876268,-0.354934 -1.142476,-0.354934 -0.61006,0 -1.05374,0.2662 -1.308856,0.698776 -0.44368,0.610042 -0.698796,1.841219 -0.698796,3.671347 V 74.79123 H 65.80206 Z m 7.243076,-8.917714 c 0,0.665501 -0.16638,1.098077 -0.49914,1.375369 -0.33276,0.277292 -0.876268,0.388209 -1.708168,0.388209 h -3.194496 v 0.221834 c 0,0.277292 -0.05546,0.443667 -0.11092,0.554584 -0.11092,0.110917 -0.2773,0.166375 -0.44368,0.166375 -0.16638,0 -0.33276,-0.05546 -0.44368,-0.166375 -0.11092,-0.110917 -0.16638,-0.332751 -0.16638,-0.554584 v -0.221834 h -0.987188 c -0.49914,0 -0.820808,-0.05546 -1.042648,-0.166375 -0.22184,-0.110917 -0.33276,-0.332751 -0.33276,-0.598951 0,-0.2662 0.11092,-0.499126 0.33276,-0.665501 0.16638,-0.110917 0.49914,-0.166375 0.931728,-0.166375 h 1.098108 v -0.598951 c 0,-0.221834 0.05546,-0.388209 0.16638,-0.499126 0.11092,-0.110917 0.22184,-0.221834 0.44368,-0.221834 0.22184,0 0.33276,0.110917 0.44368,0.277293 0.11092,0.166375 0.11092,0.388208 0.11092,0.709867 v 0.332751 H 70.738 c 0.38822,0 0.66552,-0.05546 0.820808,-0.110917 0.16638,-0.110917 0.22184,-0.221834 0.22184,-0.443667 0,-0.221834 -0.05546,-0.332751 -0.05546,-0.388209 0,-0.110917 0,-0.166376 -0.05546,-0.221834 0,-0.33275 0.05546,-0.443667 0.16638,-0.554584 0.11092,-0.110917 0.22184,-0.110917 0.38822,-0.110917 0.2773,0 0.49914,0.110917 0.61006,0.388209 0.11092,0.277292 0.22184,0.720959 0.22184,1.264452 z m -5.557092,-4.569773 c 0,0.443667 0.16638,0.765326 0.44368,1.042618 0.2773,0.277292 0.72098,0.332751 1.209028,0.388209 v -2.917112 c -0.49914,0 -0.931728,0.166375 -1.209028,0.388208 a 1.44196,1.4419188 0 0 0 -0.44368,1.098077 z m 5.557092,-0.221834 c 0,1.042619 -0.33276,1.874495 -0.876268,2.473446 -0.61006,0.554584 -1.375408,0.876243 -2.528976,0.876243 A 3.54944,3.5493386 0 0 1 67.232928,52.286205 C 66.63396,51.742712 66.35666,50.966294 66.35666,49.968043 a 3.21668,3.2165881 0 0 1 0.765348,-2.207245 c 0.488048,-0.554584 1.153568,-0.820784 1.985468,-0.820784 0.38822,0 0.66552,0.110916 0.8319,0.33275 0.16638,0.221834 0.22184,0.554584 0.22184,0.98716 v 3.194404 c 0.5546,0 0.987188,-0.110916 1.319948,-0.443667 0.33276,-0.33275 0.49914,-0.665501 0.49914,-1.153535 0,-0.33275 -0.11092,-0.720959 -0.33276,-1.042618 l -0.709888,-0.876243 c -0.11092,-0.166375 -0.11092,-0.277292 -0.11092,-0.332751 0,-0.166375 0.05546,-0.33275 0.16638,-0.443667 0.11092,-0.110917 0.22184,-0.110917 0.38822,-0.110917 0.44368,0 0.820808,0.277292 1.153568,0.820785 0.33276,0.543492 0.5546,1.208993 0.5546,1.929953 z m 0,-6.599551 c 0,0.98716 -0.33276,1.819036 -0.876268,2.362529 -0.543508,0.543492 -1.375408,0.820784 -2.362596,0.820784 -1.153568,0 -1.985468,-0.277292 -2.584436,-0.876243 -0.598968,-0.598951 -0.876268,-1.375369 -0.876268,-2.362528 0,-0.820785 0.22184,-1.486286 0.61006,-2.029778 0.38822,-0.543493 0.820808,-0.831877 1.319948,-0.831877 0.22184,0 0.38822,0.05546 0.49914,0.221834 0.11092,0.110917 0.16638,0.277292 0.16638,0.499126 0,0.166375 0,0.277292 -0.11092,0.388209 -0.11092,0.110917 -0.16638,0.166375 -0.33276,0.277292 a 1.6638,1.6637524 0 0 0 -0.5546,0.499126 1.44196,1.4419188 0 0 0 -0.33276,0.987159 c 0,0.499126 0.16638,0.876243 0.5546,1.208994 0.38822,0.33275 0.876268,0.388209 1.597248,0.388209 a 2.55116,2.5510871 0 0 0 1.541788,-0.388209 c 0.33276,-0.332751 0.5546,-0.72096 0.5546,-1.208994 0,-0.488034 -0.11092,-0.765326 -0.33276,-1.042618 -0.16638,-0.166375 -0.33276,-0.33275 -0.61006,-0.499126 -0.16638,-0.05546 -0.33276,-0.166375 -0.38822,-0.221833 -0.16638,-0.166376 -0.22184,-0.332751 -0.22184,-0.499126 0,-0.166375 0.05546,-0.388209 0.22184,-0.499126 0.16638,-0.110917 0.2773,-0.221833 0.49914,-0.221833 0.5546,0 1.042648,0.277292 1.430868,0.876243 0.38822,0.59895 0.598968,1.264451 0.598968,2.151786 z m 0,-8.862255 c 0,0.221834 -0.11092,0.443668 -0.2773,0.610043 -0.16638,0.110917 -0.44368,0.221834 -0.72098,0.221834 h -2.806276 c -0.5546,0 -0.987188,0.05546 -1.264488,0.221833 -0.2773,0.166375 -0.38822,0.499126 -0.38822,0.876243 0,0.377117 0.11092,0.665501 0.33276,0.876243 a 1.99656,1.9965029 0 0 0 0.66552,0.443667 c 0.11092,0 0.2773,0.05546 0.49914,0.05546 0.2773,0.05546 0.5546,0.05546 0.931728,0.05546 h 2.040928 c 0.33276,0 0.5546,0.05546 0.72098,0.221834 0.16638,0.166375 0.2773,0.33275 0.2773,0.610042 0,0.277293 -0.11092,0.443668 -0.2773,0.610043 -0.16638,0.166375 -0.44368,0.221834 -0.72098,0.221834 h -4.791744 c -0.2773,0 -0.49914,-0.110917 -0.66552,-0.221834 -0.16638,-0.110917 -0.2773,-0.33275 -0.2773,-0.554584 0,-0.277292 0.11092,-0.443667 0.2773,-0.610043 0.16638,-0.166375 0.38822,-0.166375 0.66552,-0.166375 h 0.16638 c -0.2773,-0.277292 -0.5546,-0.499126 -0.72098,-0.720959 a 2.88392,2.8838376 0 0 1 -0.38822,-1.430827 c 0,-0.499126 0.16638,-0.931702 0.38822,-1.264452 0.22184,-0.332751 0.38822,-0.499126 0.72098,-0.610043 0.16638,-0.110917 0.33276,-0.166375 0.49914,-0.221834 0.16638,-0.05546 0.5546,-0.05546 1.042648,-0.05546 h 3.083576 c 0.2773,0 0.5546,0.05546 0.72098,0.221834 0.16638,0.166375 0.2773,0.33275 0.2773,0.610042 z m -5.501632,-4.791607 c 0,0.499126 0.22184,0.876243 0.5546,1.153535 0.38822,0.332751 0.931728,0.443668 1.652708,0.443668 0.72098,0 1.153568,-0.110917 1.541788,-0.443668 0.38822,-0.33275 0.5546,-0.665501 0.5546,-1.153535 0,-0.488034 -0.22184,-0.876243 -0.5546,-1.208993 a 2.55116,2.5510871 0 0 0 -1.541788,-0.388209 c -0.765348,0 -1.264488,0.110917 -1.652708,0.443667 -0.33276,0.277292 -0.5546,0.665501 -0.5546,1.153535 z m 5.501632,0 c 0,0.98716 -0.33276,1.819036 -0.876268,2.362529 -0.61006,0.598951 -1.430868,0.876243 -2.418056,0.876243 -1.098108,0 -1.930008,-0.277292 -2.473516,-0.876243 a 3.10576,3.1056712 0 0 1 -0.931728,-2.362529 3.10576,3.1056712 0 0 1 0.931728,-2.362528 c 0.5546,-0.610043 1.375408,-0.876243 2.473516,-0.876243 0.987188,0 1.819088,0.277292 2.418056,0.876243 0.598968,0.598951 0.876268,1.375368 0.876268,2.362528 z m 0,-4.847065 c 0,0.277292 -0.11092,0.499126 -0.2773,0.610042 -0.16638,0.110917 -0.38822,0.221834 -0.72098,0.221834 h -7.15434 c -0.2773,0 -0.5546,-0.05546 -0.709888,-0.221834 -0.155288,-0.166375 -0.22184,-0.33275 -0.22184,-0.610042 0,-0.277292 0.05546,-0.443668 0.22184,-0.610043 0.16638,-0.110917 0.44368,-0.221833 0.709888,-0.221833 h 7.15434 c 0.33276,0 0.5546,0.110916 0.72098,0.221833 0.16638,0.110917 0.2773,0.332751 0.2773,0.610043 z m -5.501632,-4.847066 c 0,0.499126 0.22184,0.931702 0.5546,1.208994 0.38822,0.277292 0.931728,0.388209 1.652708,0.388209 a 2.55116,2.5510871 0 0 0 1.541788,-0.388209 c 0.33276,-0.277292 0.5546,-0.709868 0.5546,-1.208994 0,-0.499125 -0.22184,-0.876243 -0.5546,-1.153535 -0.33276,-0.277292 -0.876268,-0.443667 -1.541788,-0.443667 -0.765348,0 -1.264488,0.166375 -1.652708,0.443667 -0.33276,0.277292 -0.5546,0.665501 -0.5546,1.153535 z m 5.501632,0 c 0,0.98716 -0.33276,1.819036 -0.876268,2.362529 -0.61006,0.598951 -1.430868,0.876243 -2.418056,0.876243 -1.098108,0 -1.930008,-0.277292 -2.473516,-0.876243 -0.61006,-0.554584 -0.931728,-1.31991 -0.931728,-2.362529 a 3.10576,3.1056712 0 0 1 0.931728,-2.362528 c 0.5546,-0.610043 1.375408,-0.876243 2.473516,-0.876243 a 3.54944,3.5493386 0 0 1 2.418056,0.876243 c 0.5546,0.610042 0.876268,1.375369 0.876268,2.362528 z m -5.446172,-6.876843 c 0,0.499126 0.16638,0.876243 0.49914,1.153535 0.38822,0.33275 0.876268,0.443667 1.541788,0.443667 0.66552,0 1.153568,-0.110917 1.541788,-0.443667 0.33276,-0.277292 0.49914,-0.665501 0.49914,-1.153535 0,-0.488034 -0.16638,-0.876243 -0.49914,-1.153535 a 2.32932,2.3292534 0 0 0 -1.430868,-0.443668 c -0.72098,0 -1.264488,0.166376 -1.597248,0.443668 -0.33276,0.277292 -0.5546,0.665501 -0.5546,1.153535 z m 7.87532,0.110917 a 4.21496,4.2148395 0 0 1 -0.49914,2.096328 c -0.33276,0.554584 -0.709888,0.831876 -1.153568,0.831876 -0.16638,0 -0.33276,-0.05546 -0.44368,-0.166375 -0.11092,-0.110917 -0.22184,-0.332751 -0.22184,-0.554584 0,-0.110917 0.05546,-0.221834 0.11092,-0.332751 0.05546,-0.110917 0.11092,-0.166375 0.22184,-0.277292 0.2773,-0.221834 0.44368,-0.443667 0.5546,-0.610043 a 1.88564,1.8855861 0 0 0 0.2773,-0.987159 c 0,-0.709868 -0.16638,-1.153535 -0.49914,-1.375369 -0.33276,-0.166375 -0.987188,-0.277292 -1.985468,-0.277292 0.2773,0.221834 0.5546,0.443667 0.709888,0.665501 a 2.66208,2.6620039 0 0 1 0.33276,1.375369 2.44024,2.4401703 0 0 1 -0.876268,2.029778 c -0.61006,0.443667 -1.430868,0.720959 -2.473516,0.720959 -0.987188,0 -1.763628,-0.277292 -2.307136,-0.720959 -0.543508,-0.443668 -0.8319,-1.153535 -0.8319,-2.029778 0,-0.554585 0.11092,-1.042619 0.33276,-1.430828 0.16638,-0.221833 0.44368,-0.443667 0.765348,-0.720959 h -0.22184 c -0.2773,0 -0.49914,-0.05546 -0.66552,-0.166375 -0.16638,-0.110917 -0.2773,-0.332751 -0.2773,-0.554584 0,-0.332751 0.11092,-0.499126 0.33276,-0.610043 0.16638,-0.1663751 0.49914,-0.2218335 0.876268,-0.2218335 h 4.791744 c 1.098108,0 1.874548,0.2772925 2.362596,0.7653265 0.49914,0.554584 0.77644,1.375368 0.77644,2.528903 z M 73.06732,7.875106 c 0,0.2772921 -0.11092,0.4436673 -0.2773,0.6100426 A 1.22012,1.2200851 0 0 1 72.06904,8.7069822 H 67.332756 A 1.22012,1.2200851 0 0 1 66.622868,8.4851486 c -0.16638,-0.1663753 -0.2773,-0.3327505 -0.2773,-0.6100426 0,-0.2772921 0.11092,-0.4436673 0.2773,-0.6100426 0.16638,-0.1663752 0.38822,-0.2218336 0.66552,-0.2218336 h 4.791744 c 0.2773,0 0.5546,0.055458 0.72098,0.2218336 0.16638,0.1663753 0.2773,0.3327505 0.2773,0.6100426 z m -7.43164,0 c 0,0.2218336 -0.11092,0.4436673 -0.22184,0.6100426 -0.11092,0.1663752 -0.33276,0.2218336 -0.61006,0.2218336 -0.2773,0 -0.44368,-0.1109168 -0.5546,-0.2772921 -0.11092,-0.1663752 -0.22184,-0.3327505 -0.22184,-0.5545841 0,-0.2218337 0.05546,-0.4436673 0.22184,-0.6100426 0.16638,-0.1663752 0.33276,-0.2218336 0.5546,-0.2218336 0.2773,0 0.44368,0.055458 0.61006,0.2218336 0.16638,0.1663753 0.22184,0.3327505 0.22184,0.6100426 z m 4.126224,-6.0006005 c 0.05546,0.1109168 0.11092,0.2772921 0.16638,0.4436673 0.05546,0.1663752 0.05546,0.3327505 0.11092,0.6100426 l 0.33276,1.153535 c 0.16638,0.3327505 0.44368,0.4991257 0.72098,0.4991257 0.2773,0 0.49914,-0.055458 0.66552,-0.277292 0.16638,-0.2218337 0.22184,-0.4436674 0.22184,-0.7209594 0,-0.5545842 -0.16638,-0.9871598 -0.44368,-1.2644519 -0.33276,-0.3327505 -0.8319,-0.4436673 -1.486328,-0.4436673 z M 73.06732,0.77642887 c 0,0.16637524 -0.11092,0.38820893 -0.33276,0.55458413 -0.16638,0.1109168 -0.33276,0.2772921 -0.61006,0.4436673 0.2773,0.3882089 0.49914,0.665501 0.61006,0.9317014 0.22184,0.4436673 0.33276,0.9317014 0.33276,1.4308271 0,0.665501 -0.16638,1.153535 -0.49914,1.541744 -0.33276,0.3882089 -0.820808,0.5545841 -1.375408,0.5545841 -0.5546,0 -1.042648,-0.2218337 -1.319948,-0.665501 -0.2773,-0.3327505 -0.49914,-0.8762429 -0.66552,-1.7081192 -0.05546,-0.3882089 -0.16638,-0.7209594 -0.22184,-1.0426182 -0.05546,-0.3216588 -0.16638,-0.5989508 -0.22184,-0.9317013 -0.49914,0 -0.765348,0.1109168 -0.987188,0.277292 -0.22184,0.1663753 -0.2773,0.4991258 -0.2773,0.9317014 0,0.4325756 0.05546,0.7653261 0.22184,0.9871598 0.05546,0.1663752 0.22184,0.3327505 0.44368,0.4991257 0.22184,0.1663753 0.33276,0.2218337 0.44368,0.2772921 0.11092,0.1109168 0.16638,0.2772921 0.16638,0.4436673 0,0.1663753 -0.05546,0.3327505 -0.16638,0.4436673 -0.11092,0.1109169 -0.2773,0.2218337 -0.49914,0.2218337 -0.49914,0 -0.931728,-0.2772921 -1.264488,-0.7653261 -0.33276,-0.4880341 -0.49914,-1.2089935 -0.49914,-2.0963281 0,-1.0426182 0.22184,-1.7635776 0.61006,-2.14069482 0.38822,-0.44366732 0.987188,-0.66550098 1.930008,-0.66550098 h 1.9411 c 0.16638,0 0.2773,0 0.44368,-0.0554584 0.16638,-0.0554584 0.33276,-0.0554584 0.49914,-0.11091683 0.16638,-0.05545841 0.2773,-0.05545841 0.44368,-0.11091683 0.38822,0 0.5546,0.05545842 0.66552,0.22183366 0.11092,0.16637525 0.22184,0.33275049 0.22184,0.55458415 z"
     id="path2"
     style="fill:#b1b3b4;fill-rule:evenodd;stroke-width:11.0918" />
  <use
     xlink:href="#A"
     id="use4"
     x="0"
     y="0"
     width="100%"
     height="100%"
     transform="matrix(11.092,0,0,11.091683,-637.31982,-426.27555)"
     style="fill:#b1b3b4;fill-rule:evenodd" />
  <use
     x="1.877"
     y="-1.877"
     xlink:href="#A"
     id="use6"
     width="100%"
     height="100%"
     transform="matrix(11.092,0,0,11.091683,-637.31982,-426.27555)"
     style="fill:#b1b3b4;fill-rule:evenodd" />
  <use
     x="1.877"
     y="1.877"
     xlink:href="#A"
     id="use8"
     width="100%"
     height="100%"
     transform="matrix(11.092,0,0,11.091683,-637.31982,-426.27555)"
     style="fill:#b1b3b4;fill-rule:evenodd" />
  <use
     x="3.7539999"
     xlink:href="#A"
     id="use10"
     y="0"
     width="100%"
     height="100%"
     transform="matrix(11.092,0,0,11.091683,-637.31982,-426.27555)"
     style="fill:#b1b3b4;fill-rule:evenodd" />
  <use
     y="-1.877"
     xlink:href="#A"
     id="use14"
     x="0"
     width="100%"
     height="100%"
     transform="matrix(11.092,0,0,11.091683,-637.31982,-426.27555)"
     style="fill:#008bd0;fill-rule:evenodd" />
  <use
     x="3.7539999"
     y="-1.877"
     xlink:href="#A"
     id="use16"
     width="100%"
     height="100%"
     transform="matrix(11.092,0,0,11.091683,-637.31982,-426.27555)"
     style="fill:#008bd0;fill-rule:evenodd" />
  <use
     x="3.7539999"
     y="1.877"
     xlink:href="#A"
     id="use18"
     width="100%"
     height="100%"
     transform="matrix(11.092,0,0,11.091683,-637.31982,-426.27555)"
     style="fill:#008bd0;fill-rule:evenodd" />
  <path
     d="m 11.551088,41.760198 c -6.2555839,0.389555 -8.9876549,8.788533 -4.8531958,13.036455 3.1960868,3.810157 9.8915658,3.246704 12.4200198,-1.04288 1.54374,-2.773626 1.59717,-6.121913 3.112783,-8.933122 1.855227,-4.631928 6.605125,-7.099775 11.276416,-7.954605 3.503748,-0.397911 7.016083,-2.744066 7.526653,-6.452645 1.445079,-5.102432 -3.580588,-10.297193 -8.683743,-9.524389 -3.523878,0.255289 -6.155105,3.279778 -6.82114,6.605454 -1.518083,4.905467 -3.547805,10.437229 -8.631505,12.635607 -1.691164,0.79894 -3.512251,1.291681 -5.346288,1.630125 z"
     id="path20"
     style="fill:#008bd0;fill-rule:evenodd;stroke-width:11.0918" />
  <defs
     id="defs27">
    <path
       id="A"
       d="M58.581 40.309a.7.7 0 0 0-.701.701c0 .394.312.711.701.711a.71.71 0 0 0 .711-.711c0-.389-.317-.701-.711-.701z" />
    <inkscape:path-effect
       effect="fill_between_many"
       method="originald"
       linkedpaths="#path2,0,1|"
       id="path-effect1117" />
  </defs>
</svg>
