<svg xmlns="http://www.w3.org/2000/svg" width="30" height="26.35">
  <g transform="matrix(.33 0 0 .33 0 -1.83)">
    <circle cx="35.64" cy="49" r="25.73" fill="#60b6ff"/>
    <path fill="#afe05b" d="M12.2 38.4a11.69 11.69 0 0 0 3 3.6c.65.52 1.37 1 1.79 1.7.3.53.42 1.14.71 1.67.74 1.35 2.38 1.86 3.79 2.48 1.02.45 2 1.02 2.89 1.7.25.17.5.37.64.64.67 1.17-.8 2.44-.9 3.78-.07.86.46 1.66 1.09 2.26s1.37 1.07 1.94 1.73c.98 1.14 1.31 2.7 1.45 4.21s.24 4.87.66 6.32 2.9 3.85 2.74 1.43c-.26-1.3-.44-2.85.52-3.76.52-.49 1.26-.66 1.85-1.07 1.66-1.16 1.57-3.75 2.98-5.2.36-.38.82-.67 1.15-1.07.68-.8.79-1.93.86-2.98.04-.57.08-1.17-.2-1.67-.76-1.43-3.21-.93-4.16-2.25-.37-.51-.42-1.18-.68-1.75-.44-.92-1.42-1.48-2.41-1.75s-2.03-.3-3.03-.5c-1.4-.3-2.7-.9-3.95-1.58-1.3-.7-2.73-1.76-2.66-3.23.02-.45.2-.9.55-1.17.53-.4 1.27-.32 1.94-.3a7.75 7.75 0 0 0 6.97-4.08c.3-.58.55-1.24 1.08-1.63.33-.24.72-.35 1.1-.49a9.86 9.86 0 0 0 2.9-1.6c.16-.15.33-.3.41-.5.1-.26.04-.55-.07-.81a2.88 2.88 0 0 0-3.3-1.62c-.86.23-1.56.86-2.41 1.16s-2.04.03-2.2-.85c-.05-.23-.01-.47.03-.7.19-.92.55-1.79 1.05-2.57a17.32 17.32 0 0 0-8.37-.75c-2.1 1.33-4 2.95-5.64 4.8a25.66 25.66 0 0 0-4.13 6.38zm42.2 28.2c-1.5-2.35-2.94-4.56-2.88-7.35.04-2.01.92-3.98.66-5.98-.04-.3-.11-.62-.3-.88s-.46-.42-.73-.57a11.3 11.3 0 0 0-4.61-1.36c-.7-.05-1.43-.04-2.07-.32-1.22-.53-1.8-1.95-1.94-3.28-.1-1 0-2.05.56-2.87.6-.86 1.63-1.33 2.66-1.46s2.08 0 3.11.16l2.8.4c1.32.2 2.8.34 3.83-.5.73-.6 1.04-1.67.75-2.57s-1.15-1.58-2.1-1.65c-.75-.05-1.47.25-2.17.52-1.48.57-3 1.04-4.54 1.4-.34.09-.72.16-1.04.01-.44-.2-.6-.74-.72-1.21-.18-.76-.37-1.58-.08-2.3.43-1.06 1.65-1.5 2.64-2.06s1.94-1.76 1.37-2.74c-.2-.32-.52-.54-.77-.82-.88-.99.15-2.75 1.27-3.45l-.08-.06A25.7 25.7 0 0 1 61.38 49a25.65 25.65 0 0 1-6.97 17.6z"/>
    <g fill="#12222e">
      <path d="M35.64 75.73A26.76 26.76 0 0 1 8.91 49a26.52 26.52 0 0 1 2.37-11.02 26.73 26.73 0 0 1 4.29-6.63 26.8 26.8 0 0 1 20.07-9.08 26.6 26.6 0 0 1 14.95 4.57A26.72 26.72 0 0 1 62.38 49a26.63 26.63 0 0 1-7.24 18.29 26.85 26.85 0 0 1-19.5 8.44zm0-51.46a24.6 24.6 0 0 0-13.15 3.79 24.83 24.83 0 0 0-5.42 4.61 24.72 24.72 0 0 0 18.57 41.06 24.49 24.49 0 0 0 18.04-7.81 24.72 24.72 0 0 0-4.21-37.42 24.61 24.61 0 0 0-13.83-4.23z"/>
      <path d="M31.57 71.96c-1.38 0-2.9-1.99-3.26-3.18-.34-1.18-.48-3.34-.6-5.07l-.1-1.44c-.1-1.07-.33-2.62-1.21-3.65a8.5 8.5 0 0 0-1.02-.93l-.85-.73c-1-.94-1.48-2-1.4-3.06.05-.73.38-1.38.66-1.95.3-.62.5-1.04.38-1.25a1.7 1.7 0 0 0-.38-.35 13.79 13.79 0 0 0-2.7-1.57l-.6-.26c-1.34-.56-2.85-1.2-3.65-2.65-.18-.32-.3-.65-.4-.94a4.5 4.5 0 0 0-.3-.7c-.25-.42-.7-.77-1.17-1.14l-.39-.3a12.68 12.68 0 0 1-3.27-3.94 1 1 0 0 1 .43-1.35 1 1 0 0 1 1.34.43 10.6 10.6 0 0 0 2.76 3.3l.35.28c.58.45 1.24.96 1.67 1.7.2.35.34.71.46 1.03.08.23.16.45.27.66.46.85 1.53 1.3 2.66 1.77l.65.28a15.76 15.76 0 0 1 3.09 1.8c.31.23.67.52.91.96.66 1.16.1 2.3-.32 3.13-.21.43-.43.87-.46 1.21-.03.43.26.96.79 1.47.23.22.48.42.73.62.43.35.88.72 1.27 1.18 1.26 1.46 1.57 3.42 1.7 4.77l.1 1.5.52 4.63c.1.34.37.75.66 1.1-.2-1.4-.13-2.85.95-3.87.42-.4.9-.62 1.31-.82l.66-.35c.64-.45.95-1.3 1.3-2.27.35-.93.74-2 1.53-2.81a8.02 8.02 0 0 1 .59-.53c.2-.17.38-.32.52-.48.46-.54.55-1.41.62-2.41.03-.38.07-.86-.07-1.12-.18-.34-.68-.49-1.48-.7-.87-.23-1.96-.52-2.62-1.45a4.14 4.14 0 0 1-.58-1.32c-.06-.2-.11-.4-.2-.58-.25-.53-.9-.98-1.76-1.21a11 11 0 0 0-1.61-.28l-1.36-.22a15.8 15.8 0 0 1-4.23-1.67c-2.19-1.17-3.26-2.57-3.18-4.16a2.5 2.5 0 0 1 .94-1.9c.75-.59 1.68-.55 2.35-.52h.23a6.77 6.77 0 0 0 6.05-3.54l.14-.3c.28-.56.6-1.2 1.24-1.67.4-.3.82-.45 1.2-.58l.16-.05a8.8 8.8 0 0 0 2.6-1.45l.07-.06a1.9 1.9 0 0 0-2.14-1.1c-.34.08-.7.28-1.07.5-.4.22-.8.46-1.28.62a3.1 3.1 0 0 1-2.48-.2 2.07 2.07 0 0 1-1.03-1.4c-.08-.4-.02-.78.04-1.1.13-.62.32-1.21.58-1.78-2.02-.55-4.6-.7-6.77-.34a1 1 0 0 1-1.14-.82 1 1 0 0 1 .82-1.15c2.95-.48 6.45-.17 8.9.8a1 1 0 0 1 .59.63 1 1 0 0 1-.11.84 6.51 6.51 0 0 0-.9 2.22 1 1 0 0 0-.05.32c.06.1.5.23.9.1.3-.11.61-.29.94-.48.45-.25.95-.54 1.54-.7a3.9 3.9 0 0 1 4.48 2.2c.24.56.27 1.1.08 1.56-.16.41-.44.68-.72.9a10.77 10.77 0 0 1-3.19 1.77l-.17.06c-.26.1-.51.18-.67.3-.24.17-.43.55-.62.95l-.17.33a8.76 8.76 0 0 1-7.89 4.63l-.25-.01c-.4-.02-.87-.04-1.04.1-.1.07-.16.23-.17.42-.04.93 1.14 1.76 2.14 2.3 1.07.57 2.34 1.2 3.68 1.47l1.22.2 1.87.33c1.46.4 2.54 1.2 3.05 2.29.14.3.23.6.3.87.09.28.17.55.29.72.24.34.86.5 1.5.68.96.25 2.14.56 2.74 1.68.41.78.35 1.6.3 2.21-.07 1.05-.17 2.47-1.09 3.56-.24.3-.52.52-.76.73l-.44.38c-.5.52-.78 1.3-1.08 2.11-.41 1.13-.88 2.4-2.04 3.22-.32.22-.65.38-.95.52-.32.15-.6.29-.79.46-.58.56-.44 1.75-.22 2.84l.01.13c.12 1.66-.8 2-1.2 2.07l-.23.02zM54.4 67.6a1 1 0 0 1-.84-.46l-.07-.1c-1.5-2.34-3.03-4.76-2.97-7.81.01-.95.2-1.85.37-2.73.22-1.09.43-2.11.3-3.1a1.07 1.07 0 0 0-.12-.43c-.07-.1-.3-.22-.4-.28a10.32 10.32 0 0 0-4.2-1.23l-.35-.02a5.74 5.74 0 0 1-2.05-.38c-1.4-.6-2.33-2.1-2.53-4.1-.15-1.43.1-2.63.73-3.54.7-1 1.91-1.7 3.35-1.88 1.17-.16 2.35 0 3.39.16l2.8.4c1.16.17 2.35.29 3.04-.29.41-.34.6-.97.44-1.48s-.69-.92-1.22-.96a4.22 4.22 0 0 0-1.63.4l-.11.05a36.28 36.28 0 0 1-4.67 1.45c-.36.09-1.03.25-1.69-.06-.92-.42-1.16-1.41-1.27-1.89-.2-.78-.46-1.85-.04-2.9.48-1.2 1.62-1.8 2.53-2.26l.55-.3c.49-.27.91-.73 1.01-1.1.04-.14.01-.2-.02-.26-.05-.09-.17-.2-.3-.32l-.34-.34a2.39 2.39 0 0 1-.57-1.97c.15-1.1 1-2.34 2.04-3a1 1 0 0 1 1.38.31 1 1 0 0 1-.31 1.38 2.64 2.64 0 0 0-1.13 1.59c-.03.24.04.31.07.35l.23.22c.2.2.46.43.65.76.32.54.4 1.17.23 1.8a4.13 4.13 0 0 1-1.96 2.33l-.61.32c-.71.37-1.39.72-1.6 1.23-.16.42-.04 1.02.13 1.7.1.4.17.53.2.56 0-.02.14-.04.36-.1a34.06 34.06 0 0 0 4.4-1.37l.11-.04c.74-.28 1.56-.6 2.5-.54a3.46 3.46 0 0 1 2.98 2.35 3.46 3.46 0 0 1-1.07 3.64c-1.32 1.1-3.07.95-4.6.72l-2.8-.4c-.96-.14-1.94-.28-2.84-.16-.88.11-1.6.5-1.97 1.04-.44.63-.45 1.55-.39 2.2.05.46.29 2 1.34 2.47.37.16.85.19 1.36.21l.39.03a12.33 12.33 0 0 1 5.02 1.47c.37.2.77.46 1.06.87.33.46.43.98.48 1.33.17 1.31-.08 2.56-.32 3.76-.16.82-.32 1.6-.33 2.37-.05 2.45 1.2 4.41 2.65 6.69l.07.1a1 1 0 0 1-.3 1.39.99.99 0 0 1-.54.15z"/>
    </g>
    <path fill="#80b22b" d="M63.06 27.64C66.1 19.9 60.5 10.5 54.56 7.7c-9.06-3.47-17.1 1-24.32 6.09 3.31.4 6.12 4.18 8.12 7.49 1.68 2.79 3.6 5.96 6.82 8.04 5.88 3.61 12.21 2.44 17.88-1.7z"/>
    <g fill="#12222e">
      <path d="M52.55 32.48c-2.74 0-5.4-.77-7.9-2.3-3.43-2.22-5.4-5.49-7.15-8.38-2.68-4.44-5.1-6.73-7.37-7a1 1 0 0 1-.46-1.82c7.6-5.34 15.9-9.79 25.24-6.2C61.76 10 67.17 19.95 63.99 28a1 1 0 0 1-.34.44c-3.68 2.68-7.45 4.04-11.1 4.04zM32.5 13.46c2.88 1.42 5.15 4.72 6.71 7.3 1.64 2.71 3.48 5.77 6.51 7.73 6.36 3.9 12.45 1.4 16.5-1.5 2.53-6.9-2.3-15.65-8.1-18.38-7.37-2.83-14.07-.21-21.62 4.85zm30.56 14.17z"/>
      <path d="M35.64 84.52A35.68 35.68 0 0 1 3.16 34.18 35.57 35.57 0 0 1 7.2 27.4a35.34 35.34 0 0 1 1.68-2.05 35.76 35.76 0 0 1 7.8-6.65 1 1 0 0 1 1.07 1.7 33.77 33.77 0 0 0-7.37 6.27 33.67 33.67 0 0 0-1.59 1.94A33.67 33.67 0 0 0 2 48.88a33.68 33.68 0 0 0 33.64 33.64A33.32 33.32 0 0 0 60.2 71.9a33.52 33.52 0 0 0 9.1-23.01c0-6.05-1.78-12.05-5.43-18.34-2.94-5.05-8-7.82-11.71-9.25a1 1 0 0 1-.58-1.3 1 1 0 0 1 1.3-.57c4.02 1.55 9.49 4.56 12.72 10.12 3.83 6.6 5.7 12.93 5.7 19.34a35.5 35.5 0 0 1-9.65 24.38 35.78 35.78 0 0 1-26 11.26z"/>
    </g>
    <path fill="#80b22b" d="M68.6 37.83c-1.9-4.8 1.59-10.64 5.3-12.4 5.62-2.15 10.6.64 15.1 3.8-2.06.24-3.8 2.6-5.04 4.65-1.05 1.74-2.24 3.7-4.24 5-3.66 2.25-7.6 1.52-11.12-1.05z"/>
    <g fill="#12222e">
      <path d="M75.13 41.22c-2.35 0-4.77-.87-7.12-2.59a1 1 0 0 1-.34-.44c-2.05-5.18 1.43-11.6 5.8-13.66 6.04-2.31 11.3.5 16.1 3.88a1 1 0 0 1-.45 1.81c-1.28.15-2.73 1.56-4.3 4.18-1.11 1.83-2.36 3.9-4.56 5.32a9.72 9.72 0 0 1-5.13 1.5zm-5.7-4.03c2.43 1.7 6.02 3.14 9.76.84 1.8-1.16 2.92-3.02 3.91-4.67.9-1.48 2.16-3.34 3.77-4.37-4.38-2.85-8.31-4.27-12.62-2.62-2.99 1.41-6.3 6.54-4.81 10.82z"/>
      <path d="M68.6 38.83a1 1 0 0 1-.79-1.61c1.54-2 3.69-3.78 6.37-5.28a1 1 0 0 1 1.36.38 1 1 0 0 1-.38 1.36 18.8 18.8 0 0 0-5.76 4.76 1 1 0 0 1-.8.39z"/>
    </g>
  </g>
</svg>
