<?xml version="1.0" encoding="UTF-8" standalone="no"?>
<svg
   width="40"
   height="40.000004"
   viewBox="0 0 40.000001 40.000004"
   version="1.1"
   id="svg15"
   sodipodi:docname="favicon.svg"
   inkscape:version="1.1.2 (0a00cf5339, 2022-02-04)"
   xmlns:inkscape="http://www.inkscape.org/namespaces/inkscape"
   xmlns:sodipodi="http://sodipodi.sourceforge.net/DTD/sodipodi-0.dtd"
   xmlns="http://www.w3.org/2000/svg"
   xmlns:svg="http://www.w3.org/2000/svg">
  <sodipodi:namedview
     id="namedview17"
     pagecolor="#ffffff"
     bordercolor="#666666"
     borderopacity="1.0"
     inkscape:pageshadow="2"
     inkscape:pageopacity="0.0"
     inkscape:pagecheckerboard="0"
     showgrid="false"
     fit-margin-top="0"
     fit-margin-left="0"
     fit-margin-right="0"
     fit-margin-bottom="0"
     inkscape:zoom="13.372783"
     inkscape:cx="14.170573"
     inkscape:cy="22.770129"
     inkscape:window-width="2498"
     inkscape:window-height="1016"
     inkscape:window-x="2622"
     inkscape:window-y="27"
     inkscape:window-maximized="1"
     inkscape:current-layer="svg15" />
  <defs
     id="defs7">
    <linearGradient
       id="linear-gradient"
       x1="0.5"
       x2="1.275"
       y2="0.72500002"
       gradientUnits="objectBoundingBox">
      <stop
         offset="0"
         stop-color="#fe8464"
         id="stop2" />
      <stop
         offset="1"
         stop-color="#fe6e9a"
         id="stop4" />
    </linearGradient>
  </defs>
  <rect
     style="fill:none;stroke-width:0.550277;-inkscape-stroke:none;stop-color:#000000"
     id="rect992"
     width="40"
     height="40"
     x="0"
     y="0"
     inkscape:export-filename="/home/thiago/Documentos/togger/projects/basic-opl/assets/images/favicon.png"
     inkscape:export-xdpi="287.99997"
     inkscape:export-ydpi="287.99997" />
  <g
     id="g1668"
     inkscape:export-filename="/home/thiago/Documentos/togger/projects/basic-opl/assets/images/favicon.png"
     inkscape:export-xdpi="287.99997"
     inkscape:export-ydpi="287.99997"
     transform="matrix(5.5890995,0,0,5.5890995,-321.12815,-214.80057)">
    <path
       d="m 58.327087,43.782082 v 0.37877 h 0.212899 v 0.291937 h -0.212899 v 0.354836 c 0,0.03952 0.0079,0.07096 0.01559,0.08684 0.01586,0.01588 0.03173,0.03172 0.06318,0.03172 0.03145,0 0.07096,-0.008 0.126351,-0.02366 l 0.02366,0.268004 c -0.09462,0.02366 -0.181452,0.03173 -0.268284,0.03173 -0.09463,0 -0.165589,-0.008 -0.2129,-0.03173 -0.03952,-0.02366 -0.07904,-0.07096 -0.0949,-0.126072 -0.02366,-0.0473 -0.03145,-0.126351 -0.03145,-0.244627 V 44.452787 H 57.806406 V 44.16085 h 0.141928 v -0.181453 z m 0,0 z m 0.244349,0.891402 c 0,-0.149733 0.05538,-0.276076 0.157796,-0.37849 0.102685,-0.110481 0.244629,-0.157798 0.418289,-0.157798 0.197038,0 0.354836,0.06318 0.457527,0.181453 0.07876,0.09462 0.118288,0.2129 0.118288,0.347042 0,0.157797 -0.04732,0.284146 -0.15001,0.386561 -0.102414,0.102685 -0.244348,0.150011 -0.425801,0.150011 -0.165868,0 -0.29194,-0.03952 -0.394633,-0.126351 -0.118288,-0.102414 -0.181453,-0.236556 -0.181453,-0.402424 z m 0,0 z m 0.386562,0 c 0,0.08684 0.01587,0.157796 0.05538,0.197315 0.03145,0.04732 0.07876,0.06318 0.134139,0.06318 0.05511,0 0.102413,-0.01588 0.141928,-0.06318 0.03145,-0.03952 0.0473,-0.110481 0.0473,-0.205108 0,-0.08684 -0.01588,-0.149732 -0.0473,-0.189244 -0.03952,-0.04731 -0.08684,-0.06318 -0.134139,-0.06318 -0.06318,0 -0.102413,0.01586 -0.141928,0.06318 -0.03952,0.03952 -0.05538,0.11048 -0.05538,0.197037 z m 0,0 z m 1.546244,-0.512632 h 0.362907 v 0.954576 0.05511 c 0,0.06318 -0.01559,0.126352 -0.03952,0.181454 -0.03145,0.05538 -0.06289,0.102685 -0.110196,0.13414 -0.03952,0.03952 -0.102697,0.06318 -0.165869,0.07905 -0.07096,0.01558 -0.149732,0.02366 -0.236557,0.02366 -0.205108,0 -0.339249,-0.03173 -0.418008,-0.08684 -0.07124,-0.06318 -0.110481,-0.14193 -0.110481,-0.244627 0,-0.01588 0,-0.03145 0,-0.05511 l 0.370699,0.04732 c 0.01585,0.03145 0.03145,0.05511 0.0473,0.07096 0.03145,0.01587 0.06318,0.03145 0.110481,0.03145 0.05511,0 0.09462,-0.01558 0.118288,-0.0473 0.03172,-0.03145 0.04731,-0.07876 0.04731,-0.157798 v -0.157796 c -0.03952,0.0473 -0.07876,0.07903 -0.118288,0.09463 -0.05511,0.03172 -0.118288,0.0476 -0.189245,0.0476 -0.13414,0 -0.244627,-0.05538 -0.331458,-0.173662 -0.05511,-0.08684 -0.08684,-0.197314 -0.08684,-0.331457 0,-0.157796 0.03952,-0.276075 0.118559,-0.354834 0.07096,-0.09462 0.173382,-0.134139 0.29166,-0.134139 0.07905,0 0.150011,0.01587 0.197316,0.03952 0.0473,0.02366 0.09463,0.07876 0.141929,0.141928 z m 0,0 z m -0.362905,0.497047 c 0,0.07096 0.01587,0.126072 0.0473,0.157798 0.03172,0.03924 0.07124,0.05511 0.11856,0.05511 0.0473,0 0.09463,-0.01585 0.126074,-0.05511 0.03172,-0.03952 0.04731,-0.09462 0.04731,-0.165869 0,-0.07096 -0.01558,-0.126072 -0.05511,-0.16559 -0.03172,-0.03952 -0.07096,-0.05511 -0.118288,-0.05511 -0.05538,0 -0.0949,0.01559 -0.118559,0.04732 -0.03145,0.03952 -0.0473,0.09462 -0.0473,0.181452 z m 0,0 z m 1.577971,-0.497047 h 0.362907 v 0.954576 0.05511 c 0,0.06318 -0.01588,0.126352 -0.03952,0.181454 -0.03173,0.05538 -0.06318,0.102685 -0.110481,0.13414 -0.04732,0.03952 -0.102685,0.06318 -0.17366,0.07905 -0.06289,0.01558 -0.14193,0.02366 -0.228765,0.02366 -0.205108,0 -0.347041,-0.03173 -0.418009,-0.08684 -0.07903,-0.06318 -0.118288,-0.14193 -0.118288,-0.244627 0,-0.01588 0,-0.03145 0,-0.05511 l 0.378489,0.04732 c 0.008,0.03145 0.02366,0.05511 0.04732,0.07096 0.02366,0.01587 0.06318,0.03145 0.102685,0.03145 0.05511,0 0.102413,-0.01558 0.126072,-0.0473 0.03173,-0.03145 0.03952,-0.07876 0.03952,-0.157798 v -0.157796 c -0.03952,0.0473 -0.07096,0.07903 -0.110481,0.09463 -0.06289,0.03172 -0.126073,0.0476 -0.189244,0.0476 -0.14193,0 -0.244627,-0.05538 -0.33118,-0.173662 -0.06318,-0.08684 -0.0949,-0.197314 -0.0949,-0.331457 0,-0.157796 0.0473,-0.276075 0.11856,-0.354834 0.07876,-0.09462 0.181453,-0.134139 0.299731,-0.134139 0.07876,0 0.141929,0.01587 0.197038,0.03952 0.04732,0.02366 0.0949,0.07876 0.142206,0.141928 z m 0,0 z m -0.362905,0.497047 c 0,0.07096 0.01558,0.126072 0.0473,0.157798 0.03145,0.03924 0.07096,0.05511 0.118288,0.05511 0.0473,0 0.08684,-0.01585 0.118288,-0.05511 0.03952,-0.03952 0.05538,-0.09462 0.05538,-0.165869 0,-0.07096 -0.02366,-0.126072 -0.05538,-0.16559 -0.03145,-0.03952 -0.07096,-0.05511 -0.126073,-0.05511 -0.0473,0 -0.08684,0.01559 -0.11856,0.04732 -0.02366,0.03952 -0.03924,0.09462 -0.03924,0.181452 z m 0,0 z m 1.964255,0.11048 h -0.773124 c 0.0079,0.06289 0.02366,0.102413 0.04732,0.134139 0.03952,0.0473 0.08684,0.07096 0.15001,0.07096 0.03923,0 0.07096,-0.01587 0.102413,-0.03172 0.02366,-0.01558 0.0473,-0.03145 0.07096,-0.06318 l 0.378769,0.03172 c -0.05538,0.102413 -0.12635,0.173383 -0.205107,0.220972 -0.08684,0.05511 -0.205108,0.07096 -0.355115,0.07096 -0.134139,0 -0.236555,-0.01585 -0.315593,-0.05538 -0.07876,-0.0473 -0.14193,-0.102413 -0.189245,-0.189245 -0.05511,-0.07903 -0.07876,-0.17366 -0.07876,-0.284145 0,-0.157519 0.05511,-0.283869 0.149734,-0.378491 0.102685,-0.11048 0.244627,-0.157798 0.418288,-0.157798 0.149733,0 0.260213,0.02366 0.33925,0.06318 0.08655,0.05511 0.149732,0.118288 0.197037,0.197037 0.03952,0.08684 0.06318,0.189524 0.06318,0.323666 z m 0,0 z m -0.394354,-0.189523 c -0.008,-0.07096 -0.02366,-0.126073 -0.05538,-0.157798 -0.03952,-0.03145 -0.07876,-0.0473 -0.134139,-0.0473 -0.05511,0 -0.110481,0.02366 -0.14193,0.07096 -0.02366,0.03173 -0.03952,0.07903 -0.04731,0.134139 z m 0,0 z m 0.46532,-0.418009 h 0.362907 v 0.173659 c 0.03145,-0.07124 0.07096,-0.12635 0.110481,-0.157795 0.03145,-0.02366 0.07876,-0.03952 0.134139,-0.03952 0.05511,0 0.118288,0.01587 0.189246,0.05511 l -0.126073,0.284147 c -0.03952,-0.02366 -0.07903,-0.03172 -0.102685,-0.03172 -0.05511,0 -0.09462,0.02366 -0.118288,0.06318 -0.03952,0.05538 -0.06318,0.165589 -0.06318,0.331457 v 0.33925 H 63.39161 Z"
       style="font-variation-settings:normal;opacity:1;vector-effect:none;fill:#b1b3b4;fill-opacity:1;fill-rule:evenodd;stroke:none;stroke-width:0.175069;stroke-linecap:butt;stroke-linejoin:miter;stroke-miterlimit:4;stroke-dasharray:none;stroke-dashoffset:0;stroke-opacity:1;-inkscape-stroke:none;stop-color:#000000;stop-opacity:1"
       id="path11851" />
    <path
       d="m 64.04419,43.354822 c 0,0.0597 -0.01488,0.09927 -0.04464,0.124124 -0.02977,0.02486 -0.07931,0.03467 -0.153886,0.03467 h -0.287815 v 0.01996 c 0,0.02486 -0.0049,0.03974 -0.0098,0.04954 -0.01,0.01 -0.02486,0.01488 -0.03974,0.01488 -0.01978,0 -0.02976,-0.0049 -0.03974,-0.01488 -0.01,-0.01488 -0.01488,-0.02977 -0.01488,-0.04954 v -0.01996 h -0.08928 c -0.04464,0 -0.07441,-0.0049 -0.09437,-0.01488 -0.01978,-0.0098 -0.02977,-0.02976 -0.02977,-0.05445 0,-0.02486 0.01,-0.04464 0.02977,-0.0597 0.01488,-0.0098 0.04464,-0.01488 0.08438,-0.01488 h 0.09926 v -0.05445 c 0,-0.01996 0.0049,-0.03484 0.01488,-0.04482 0.01,-0.01488 0.01996,-0.01978 0.03974,-0.01978 0.01488,0 0.02976,0.01 0.03974,0.02486 0.0098,0.01 0.0098,0.03467 0.0098,0.06442 v 0.02976 h 0.278009 c 0.03467,0 0.05952,-0.0049 0.07441,-0.0098 0.01488,-0.01 0.01978,-0.01996 0.01978,-0.03974 0,-0.0049 0,-0.01 0,-0.01488 0,-0.0049 -0.0049,-0.01488 -0.0049,-0.01978 0,-0.01 0,-0.01506 -0.0049,-0.01996 0,-0.0049 0,-0.01 0,-0.01488 0,-0.01488 0.0049,-0.02486 0.01488,-0.03467 0.0098,-0.005 0.01978,-0.01 0.03467,-0.01 0.02486,0 0.04464,0.01 0.05463,0.03467 0.01488,0.02486 0.01978,0.0646 0.01978,0.114146 z m 0,0 z m -0.501222,-0.411761 c 0,0.03957 0.01488,0.06932 0.03974,0.09419 0.02976,0.01996 0.0646,0.02976 0.109243,0.03484 v -0.263129 c -0.04464,0 -0.08438,0.01488 -0.109243,0.03484 -0.02486,0.02468 -0.03974,0.05462 -0.03974,0.09926 z m 0,0 z m 0.501222,-0.01996 c 0,0.09437 -0.02977,0.168766 -0.07931,0.223388 -0.05463,0.04954 -0.124124,0.07931 -0.22829,0.07931 -0.08928,0 -0.163864,-0.02976 -0.218311,-0.07931 -0.04971,-0.04973 -0.07948,-0.119047 -0.07948,-0.208507 0,-0.08438 0.02486,-0.148809 0.0695,-0.198528 0.04464,-0.04954 0.104167,-0.07441 0.178571,-0.07441 0.03484,0 0.0597,0.01 0.07458,0.02976 0.01488,0.01488 0.01978,0.04973 0.01978,0.08946 v 0.287814 c 0.04954,0 0.08928,-0.01 0.119047,-0.03974 0.02977,-0.02486 0.04464,-0.05952 0.04464,-0.104166 0,-0.02976 -0.0098,-0.0646 -0.02976,-0.09437 -0.01488,-0.01978 -0.03467,-0.04464 -0.06442,-0.07948 -0.005,0 -0.005,-0.0049 -0.005,-0.0098 -0.0049,-0.005 -0.0049,-0.01488 -0.0049,-0.01996 0,-0.01488 0.0049,-0.02977 0.01488,-0.03957 0.005,-0.005 0.01996,-0.01 0.03484,-0.01 0.03957,0 0.07441,0.02486 0.104166,0.07441 0.03467,0.04972 0.04954,0.109242 0.04954,0.173668 z m 0,0 z m 0,-0.595409 c 0,0.08928 -0.02977,0.163689 -0.07931,0.213408 -0.04971,0.04954 -0.124124,0.07441 -0.213409,0.07441 -0.104166,0 -0.178745,-0.02486 -0.233192,-0.07948 -0.04971,-0.04954 -0.07948,-0.123949 -0.07948,-0.213409 0,-0.07441 0.01978,-0.133928 0.05462,-0.183473 0.03467,-0.04972 0.07441,-0.07458 0.119046,-0.07458 0.01996,0 0.03484,0.005 0.04464,0.01996 0.01,0.0098 0.01488,0.02468 0.01488,0.04464 0,0.01488 0,0.02486 -0.0098,0.03467 -0.005,0.01 -0.01488,0.01488 -0.02977,0.02486 -0.02486,0.01488 -0.03974,0.02976 -0.04971,0.04464 -0.01978,0.02486 -0.02977,0.04972 -0.02977,0.08928 0,0.04464 0.01488,0.07948 0.04954,0.109242 0.03484,0.02486 0.07948,0.03467 0.144081,0.03467 0.05953,0 0.104166,-0.0098 0.13883,-0.03467 0.02976,-0.02976 0.04972,-0.0646 0.04972,-0.109242 0,-0.03957 -0.01,-0.0695 -0.02977,-0.09419 -0.01488,-0.01488 -0.02976,-0.02977 -0.05462,-0.04464 -0.01488,-0.005 -0.02976,-0.01488 -0.03484,-0.01996 -0.01488,-0.01488 -0.01978,-0.02976 -0.01978,-0.04464 0,-0.01978 0.0049,-0.03467 0.01978,-0.04464 0.01,-0.01488 0.02486,-0.01978 0.04482,-0.01978 0.04954,0 0.09419,0.02468 0.129026,0.07931 0.03467,0.04972 0.05445,0.114144 0.05445,0.193626 z m 0,0 z m 0,-0.799014 c 0,0.01978 -0.0098,0.03974 -0.02468,0.05462 -0.01488,0.0098 -0.03974,0.01978 -0.0646,0.01978 h -0.253149 c -0.04954,0 -0.08928,0.0049 -0.114145,0.01978 -0.01978,0.01506 -0.03467,0.04481 -0.03467,0.07948 0,0.02977 0.01,0.05952 0.02977,0.07948 0.01488,0.01488 0.03484,0.02977 0.05952,0.03957 0.01,0 0.02486,0.005 0.04464,0.005 0.02486,0.0049 0.04972,0.0049 0.08438,0.0049 h 0.183647 c 0.02977,0 0.04972,0.0049 0.0646,0.01978 0.01488,0.01 0.02468,0.02976 0.02468,0.05463 0,0.01996 -0.0098,0.03974 -0.02468,0.05463 -0.01488,0.01 -0.03974,0.01978 -0.0646,0.01978 h -0.431719 c -0.02486,0 -0.04464,-0.0098 -0.05953,-0.01978 -0.01488,-0.01 -0.02486,-0.02976 -0.02486,-0.04954 0,-0.02486 0.01,-0.03974 0.02486,-0.05462 0.01488,-0.01 0.03467,-0.01488 0.05953,-0.01488 h 0.01488 c -0.02486,-0.02486 -0.04954,-0.04464 -0.0646,-0.0646 -0.01978,-0.03467 -0.03467,-0.07931 -0.03467,-0.129025 0,-0.04464 0.01488,-0.08438 0.03467,-0.114145 0.01506,-0.02468 0.03484,-0.04464 0.0646,-0.05462 0.01488,-0.0098 0.02976,-0.01488 0.04464,-0.01978 0.01978,-0.0049 0.04971,-0.0049 0.09437,-0.0049 h 0.277834 c 0.02486,0 0.04972,0.0049 0.0646,0.01978 0.01488,0.01488 0.02468,0.02976 0.02468,0.05462 z m 0,0 z m -0.496145,-0.431719 c 0,0.04464 0.01978,0.07931 0.04954,0.104166 0.03484,0.02976 0.08438,0.03974 0.148983,0.03974 0.05953,0 0.104166,-0.01 0.13883,-0.03974 0.02976,-0.02486 0.04972,-0.05953 0.04972,-0.104166 0,-0.04464 -0.01996,-0.07948 -0.04972,-0.109244 -0.03467,-0.02486 -0.07931,-0.03467 -0.13883,-0.03467 -0.0695,0 -0.114145,0.0098 -0.148983,0.03957 -0.02976,0.02486 -0.04954,0.0597 -0.04954,0.104341 z m 0,0 z m 0.496145,0 c 0,0.08928 -0.02977,0.163689 -0.07931,0.213408 -0.05463,0.05445 -0.129026,0.07931 -0.218311,0.07931 -0.09926,0 -0.173843,-0.02486 -0.223387,-0.07931 -0.05463,-0.04972 -0.08438,-0.124124 -0.08438,-0.213408 0,-0.08928 0.02977,-0.163865 0.08438,-0.213409 0.04954,-0.05463 0.124123,-0.07948 0.223387,-0.07948 0.08928,0 0.163689,0.02486 0.218311,0.07948 0.04954,0.04954 0.07931,0.124123 0.07931,0.213409 z m 0,0 z m 0,-0.436797 c 0,0.02486 -0.0098,0.04464 -0.02468,0.05463 -0.01488,0.01488 -0.03484,0.01978 -0.0646,0.01978 h -0.645129 c -0.02486,0 -0.04954,-0.0049 -0.06442,-0.01978 -0.01488,-0.01 -0.01996,-0.02976 -0.01996,-0.05463 0,-0.02468 0.005,-0.03974 0.01996,-0.05462 0.01488,-0.0098 0.03957,-0.01978 0.06442,-0.01978 h 0.645129 c 0.02977,0 0.04972,0.01 0.0646,0.01978 0.01488,0.01488 0.02468,0.02993 0.02468,0.05462 z m 0,0 z m -0.496145,-0.436621 c 0,0.04464 0.01978,0.08438 0.04954,0.109067 0.03484,0.02486 0.08438,0.03484 0.148983,0.03484 0.05953,0 0.104166,-0.01 0.13883,-0.03484 0.02976,-0.02468 0.04972,-0.06442 0.04972,-0.109067 0,-0.04464 -0.01996,-0.07948 -0.04972,-0.104341 -0.03467,-0.02468 -0.07931,-0.03957 -0.13883,-0.03957 -0.0695,0 -0.114145,0.01488 -0.148983,0.03957 -0.02976,0.02486 -0.04954,0.0597 -0.04954,0.104341 z m 0,0 z m 0.496145,0 c 0,0.08928 -0.02977,0.163688 -0.07931,0.213408 -0.05463,0.05445 -0.129026,0.07931 -0.218311,0.07931 -0.09926,0 -0.173843,-0.02486 -0.223387,-0.07931 -0.05463,-0.04971 -0.08438,-0.119222 -0.08438,-0.213408 0,-0.08928 0.02977,-0.158788 0.08438,-0.213409 0.04954,-0.05463 0.124123,-0.07948 0.223387,-0.07948 0.08928,0 0.163689,0.02976 0.218311,0.07948 0.04954,0.05463 0.07931,0.124123 0.07931,0.213409 z m 0,0 z m -0.491243,-0.620444 c 0,0.04481 0.01488,0.07948 0.04464,0.104341 0.03484,0.02976 0.07948,0.03974 0.139004,0.03974 0.05952,0 0.104166,-0.01 0.139005,-0.03974 0.02976,-0.02486 0.04464,-0.05952 0.04464,-0.104341 0,-0.04464 -0.01488,-0.07931 -0.04464,-0.104166 -0.03484,-0.02486 -0.07458,-0.03974 -0.129026,-0.03974 -0.0646,0 -0.114145,0.01488 -0.144082,0.03974 -0.03467,0.02486 -0.04954,0.05952 -0.04954,0.104166 z m 0,0 z m 0.709728,0.01 c 0,0.0695 -0.01488,0.139005 -0.04482,0.188549 -0.02976,0.04972 -0.06442,0.07458 -0.104165,0.07458 -0.01488,0 -0.02977,-0.005 -0.03974,-0.01506 -0.01488,-0.01488 -0.01978,-0.02977 -0.01978,-0.04954 0,-0.01 0.0049,-0.01978 0.01,-0.02976 0.0049,-0.01 0.0098,-0.01488 0.01978,-0.02486 0.02486,-0.01978 0.03974,-0.03974 0.04972,-0.05463 0.01488,-0.02468 0.02468,-0.05445 0.02468,-0.08928 0,-0.06442 -0.01488,-0.104167 -0.04464,-0.124124 -0.02977,-0.01488 -0.08928,-0.02468 -0.178571,-0.02468 0.02468,0.01978 0.04954,0.03974 0.06442,0.05952 0.01996,0.03467 0.02976,0.07441 0.02976,0.124124 0,0.07931 -0.02468,0.138829 -0.07931,0.183472 -0.05462,0.03974 -0.129025,0.0646 -0.223387,0.0646 -0.08928,0 -0.158788,-0.02486 -0.208333,-0.0646 -0.04971,-0.04464 -0.07458,-0.104166 -0.07458,-0.183472 0,-0.04972 0.01,-0.09437 0.02976,-0.129026 0.01506,-0.01996 0.03974,-0.03974 0.0695,-0.0646 h -0.01978 c -0.02486,0 -0.04464,-0.0049 -0.05952,-0.01488 -0.01488,-0.01488 -0.02486,-0.02976 -0.02486,-0.04954 0,-0.02994 0.01,-0.04481 0.02977,-0.05462 0.01488,-0.01488 0.04464,-0.01996 0.07948,-0.01996 h 0.431719 c 0.09926,0 0.168766,0.02486 0.213409,0.0695 0.04464,0.04973 0.0695,0.124124 0.0695,0.228291 z m 0,0 z m -0.218485,-0.47146 c 0,0.02486 -0.0098,0.03974 -0.02468,0.05462 -0.01488,0.01 -0.03484,0.01978 -0.0646,0.01978 h -0.426818 c -0.02977,0 -0.04954,-0.0098 -0.06442,-0.01978 -0.01488,-0.01488 -0.02486,-0.02976 -0.02486,-0.05462 0,-0.02468 0.01,-0.03974 0.02486,-0.05463 0.01488,-0.01488 0.03467,-0.01978 0.05953,-0.01978 h 0.431719 c 0.02486,0 0.04973,0.0049 0.0646,0.01978 0.01488,0.01488 0.02468,0.02994 0.02468,0.05463 z m 0,0 z m -0.669813,0 c 0,0.01996 -0.01,0.03974 -0.01996,0.05462 -0.01488,0.01 -0.02976,0.01978 -0.05463,0.01978 -0.01978,0 -0.03957,-0.0098 -0.04954,-0.02468 -0.01488,-0.01 -0.01978,-0.02976 -0.01978,-0.04972 0,-0.02468 0.0049,-0.03974 0.01978,-0.05462 0.01,-0.01488 0.02977,-0.01978 0.04954,-0.01978 0.02486,0 0.03974,0.0049 0.05463,0.01978 0.01,0.01488 0.01996,0.02994 0.01996,0.05462 z m 0,0 z m 0.372196,-0.540963 c 0.0049,0.01 0.0098,0.02486 0.01488,0.03974 0.0049,0.01488 0.0049,0.02976 0.0098,0.05463 0.01488,0.04972 0.02486,0.08438 0.02976,0.104166 0.01488,0.02976 0.03974,0.04464 0.0646,0.04464 0.02486,0 0.04464,-0.0049 0.05953,-0.02468 0.01488,-0.01488 0.01978,-0.03974 0.01978,-0.0646 0,-0.04954 -0.01488,-0.08928 -0.03957,-0.114145 -0.02976,-0.02976 -0.07458,-0.03974 -0.134103,-0.03974 z m 0,0 z m 0.297617,-0.09909 c 0,0.01488 -0.0098,0.03467 -0.02977,0.04954 -0.01488,0.01 -0.02976,0.02486 -0.05462,0.03974 0.02486,0.03467 0.04481,0.05952 0.05462,0.08438 0.01996,0.03957 0.02977,0.08438 0.02977,0.129026 0,0.05952 -0.01488,0.104166 -0.04464,0.13883 -0.03467,0.03484 -0.07441,0.04972 -0.123949,0.04972 -0.05462,0 -0.09437,-0.01996 -0.119222,-0.05952 -0.02486,-0.02976 -0.04464,-0.07948 -0.05953,-0.153886 -0.0049,-0.03467 -0.01488,-0.0646 -0.01978,-0.09436 -0.005,-0.02977 -0.01488,-0.05445 -0.01996,-0.08438 -0.04464,0 -0.0695,0.01 -0.08928,0.02486 -0.01488,0.01488 -0.02486,0.04464 -0.02486,0.08438 0,0.03974 0.005,0.0695 0.01996,0.08928 0.0049,0.01488 0.01978,0.02976 0.03957,0.04464 0.01996,0.01 0.02994,0.01996 0.03974,0.02486 0.01,0.01 0.01488,0.02486 0.01488,0.03974 0,0.01488 -0.0049,0.02977 -0.01488,0.03974 -0.0098,0.01488 -0.02468,0.01978 -0.04464,0.01978 -0.04464,0 -0.08438,-0.02486 -0.114145,-0.0695 -0.02976,-0.04954 -0.04464,-0.109067 -0.04464,-0.188549 0,-0.09419 0.01978,-0.158787 0.05462,-0.193451 0.03467,-0.03974 0.08928,-0.0597 0.173669,-0.0597 0.02976,0 0.04954,0 0.04954,0 0.01,0 0.02994,0 0.04482,0 0.02468,0 0.03467,0 0.03467,0 0.01488,0 0.02486,0 0.04464,0 0.01488,0 0.02486,0 0.03974,-0.0049 0.01488,0 0.02976,-0.0049 0.04464,-0.01 0.01488,0 0.02486,-0.0049 0.03974,-0.0098 0.0098,0 0.01488,0 0.01978,0 0.01488,0 0.02976,0.0049 0.03974,0.01978 0.01488,0.01 0.01978,0.02977 0.01978,0.04972 z"
       style="fill:#b1b3b4;fill-opacity:1;fill-rule:evenodd;stroke:none;stroke-width:0.175069"
       id="path11853" />
    <g
       id="g1482"
       style="font-variation-settings:normal;vector-effect:none;fill:#b1b3b4;fill-opacity:1;stroke:none;stroke-width:0.180438;stroke-linecap:butt;stroke-linejoin:miter;stroke-miterlimit:4;stroke-dasharray:none;stroke-dashoffset:0;stroke-opacity:1;-inkscape-stroke:none;stop-color:#000000">
      <path
         d="m 58.581247,40.309153 c -0.388844,0 -0.700822,0.311977 -0.700822,0.700641 0,0.393897 0.311978,0.711107 0.700822,0.711107 0.393716,0 0.710927,-0.31721 0.710927,-0.711107 0,-0.388664 -0.317211,-0.700641 -0.710927,-0.700641 z"
         style="font-variation-settings:normal;vector-effect:none;fill:#b1b3b4;fill-opacity:1;fill-rule:evenodd;stroke:none;stroke-width:0.180438;stroke-linecap:butt;stroke-linejoin:miter;stroke-miterlimit:4;stroke-dasharray:none;stroke-dashoffset:0;stroke-opacity:1;-inkscape-stroke:none;stop-color:#000000;stop-opacity:1"
         id="path11857" />
      <path
         d="m 60.458346,38.432054 c -0.388664,0 -0.700822,0.311978 -0.700822,0.700642 0,0.393896 0.312158,0.710926 0.700822,0.710926 0.393896,0 0.710926,-0.31703 0.710926,-0.710926 0,-0.388664 -0.31703,-0.700642 -0.710926,-0.700642 z"
         style="font-variation-settings:normal;vector-effect:none;fill:#b1b3b4;fill-opacity:1;fill-rule:evenodd;stroke:none;stroke-width:0.180438;stroke-linecap:butt;stroke-linejoin:miter;stroke-miterlimit:4;stroke-dasharray:none;stroke-dashoffset:0;stroke-opacity:1;-inkscape-stroke:none;stop-color:#000000;stop-opacity:1"
         id="path11859" />
      <path
         d="m 60.458346,42.186251 c -0.388664,0 -0.700822,0.311978 -0.700822,0.700642 0,0.393896 0.312158,0.711106 0.700822,0.711106 0.393896,0 0.710926,-0.31721 0.710926,-0.711106 0,-0.388664 -0.31703,-0.700642 -0.710926,-0.700642 z"
         style="font-variation-settings:normal;vector-effect:none;fill:#b1b3b4;fill-opacity:1;fill-rule:evenodd;stroke:none;stroke-width:0.180438;stroke-linecap:butt;stroke-linejoin:miter;stroke-miterlimit:4;stroke-dasharray:none;stroke-dashoffset:0;stroke-opacity:1;-inkscape-stroke:none;stop-color:#000000;stop-opacity:1"
         id="path11861" />
      <path
         d="m 62.335444,40.309153 c -0.388664,0 -0.700641,0.311977 -0.700641,0.700641 0,0.393897 0.311977,0.711107 0.700641,0.711107 0.393897,0 0.710927,-0.31721 0.710927,-0.711107 0,-0.388664 -0.31703,-0.700641 -0.710927,-0.700641 z"
         style="font-variation-settings:normal;vector-effect:none;fill:#b1b3b4;fill-opacity:1;fill-rule:evenodd;stroke:none;stroke-width:0.180438;stroke-linecap:butt;stroke-linejoin:miter;stroke-miterlimit:4;stroke-dasharray:none;stroke-dashoffset:0;stroke-opacity:1;-inkscape-stroke:none;stop-color:#000000;stop-opacity:1"
         id="path11865" />
    </g>
    <g
       id="g1488">
      <path
         d="m 58.581247,38.432054 c -0.388844,0 -0.700822,0.311978 -0.700822,0.700642 0,0.393896 0.311978,0.710926 0.700822,0.710926 0.393716,0 0.710927,-0.31703 0.710927,-0.710926 0,-0.388664 -0.317211,-0.700642 -0.710927,-0.700642 z"
         style="fill:#008bd0;fill-opacity:1;fill-rule:evenodd;stroke:none;stroke-width:0.180438"
         id="path11855" />
      <path
         d="m 62.335444,38.432054 c -0.388664,0 -0.700641,0.311978 -0.700641,0.700642 0,0.393896 0.311977,0.710926 0.700641,0.710926 0.393897,0 0.710927,-0.31703 0.710927,-0.710926 0,-0.388664 -0.31703,-0.700642 -0.710927,-0.700642 z"
         style="fill:#008bd0;fill-opacity:1;fill-rule:evenodd;stroke:none;stroke-width:0.180438"
         id="path11863" />
      <path
         d="m 62.335444,42.186251 c -0.388664,0 -0.700641,0.311978 -0.700641,0.700642 0,0.393896 0.311977,0.711106 0.700641,0.711106 0.393897,0 0.710927,-0.31721 0.710927,-0.711106 0,-0.388664 -0.31703,-0.700642 -0.710927,-0.700642 z"
         style="fill:#008bd0;fill-opacity:1;fill-rule:evenodd;stroke:none;stroke-width:0.180438"
         id="path11867" />
      <path
         d="m 58.499328,42.196536 c -0.347704,0.03573 -0.618903,0.3376 -0.618903,0.700642 0,0.388844 0.311978,0.705874 0.700822,0.705874 0.3376,0 0.618903,-0.230239 0.690537,-0.542217 v 0 0 c 0.194332,-0.833624 0.455065,-1.150835 1.242858,-1.314492 0.132983,-0.03068 0.639293,-0.107361 0.659682,-0.736549 0.01029,-0.393716 -0.357989,-0.700641 -0.705693,-0.700641 -0.347885,0 -0.583177,0.204617 -0.6752,0.490972 v 0 c -0.250629,0.797898 -0.419338,1.232754 -1.294103,1.396411 z"
         style="fill:#008bd0;fill-opacity:1;fill-rule:evenodd;stroke:none;stroke-width:0.180438"
         id="path11869" />
    </g>
  </g>
</svg>
