<?xml version="1.0" encoding="UTF-8" standalone="no"?>
<!-- Created with Inkscape (http://www.inkscape.org/) -->

<svg
   width="153.65338mm"
   height="25.968046mm"
   viewBox="0 0 153.65338 25.968046"
   version="1.1"
   id="svg1"
   inkscape:version="1.3.2 (1:1.3.2+202311252150+091e20ef0f)"
   sodipodi:docname="logo.svg"
   xmlns:inkscape="http://www.inkscape.org/namespaces/inkscape"
   xmlns:sodipodi="http://sodipodi.sourceforge.net/DTD/sodipodi-0.dtd"
   xmlns="http://www.w3.org/2000/svg"
   xmlns:svg="http://www.w3.org/2000/svg">
  <sodipodi:namedview
     id="namedview1"
     pagecolor="#ffffff"
     bordercolor="#666666"
     borderopacity="1.0"
     inkscape:showpageshadow="2"
     inkscape:pageopacity="0.0"
     inkscape:pagecheckerboard="0"
     inkscape:deskcolor="#d1d1d1"
     inkscape:document-units="mm"
     inkscape:zoom="0.72693603"
     inkscape:cx="279.25428"
     inkscape:cy="121.05604"
     inkscape:window-width="2502"
     inkscape:window-height="1016"
     inkscape:window-x="2618"
     inkscape:window-y="27"
     inkscape:window-maximized="1"
     inkscape:current-layer="layer1" />
  <defs
     id="defs1" />
  <g
     inkscape:label="Camada 1"
     inkscape:groupmode="layer"
     id="layer1"
     transform="translate(-30.875431,-116.55495)">
    <g
       id="g6"
       transform="matrix(0.35277777,0,0,-0.35277777,-586.27333,362.49151)"
       style="fill:#ffffff;fill-opacity:1">
      <path
         d="m 1769.7349,665.24921 c 2.4455,1.3546 5.1913,2.0329 8.2344,2.0329 2.6443,0 5.1085,-0.6113 7.3906,-1.8341 2.2811,-1.2247 4.2156,-3.0608 5.8037,-5.5063 l 9.4236,5.5555 c -1.9838,4.0336 -4.9599,7.1091 -8.9275,9.2258 -3.9685,2.1157 -8.4992,3.175 -13.592,3.175 -5.5555,0 -10.4997,-1.1755 -14.8305,-3.5215 -4.3328,-2.3491 -7.7224,-5.5408 -10.1689,-9.5743 -2.4475,-4.0345 -3.6702,-8.7296 -3.6702,-14.0862 0,-5.2927 1.2227,-9.9701 3.6702,-14.038 2.4465,-4.067 5.8361,-7.2765 10.1689,-9.6226 4.3308,-2.349 9.275,-3.5225 14.8305,-3.5225 5.0928,0 9.6235,1.0751 13.592,3.2242 3.9676,2.1492 6.9437,5.209 8.9275,9.1776 l -9.4236,5.5545 c -1.5881,-2.5134 -3.5226,-4.381 -5.8037,-5.6048 -2.2821,-1.2247 -4.7463,-1.8351 -7.3906,-1.8351 -3.0431,0 -5.7889,0.6774 -8.2344,2.034 -2.4475,1.3537 -4.3653,3.2892 -5.7544,5.8036 -1.3882,2.5125 -2.0822,5.4562 -2.0822,8.8291 0,3.3729 0.694,6.2988 2.0822,8.7787 1.3891,2.481 3.3069,4.3978 5.7544,5.7545"
         style="fill:#ffffff;fill-opacity:1;fill-rule:nonzero;stroke:none;stroke-width:0.984502"
         id="path931"
         inkscape:export-filename="./path931.svg"
         inkscape:export-xdpi="200.571"
         inkscape:export-ydpi="200.571" />
      <path
         d="m 1811.0136,623.53291 h 12.3013 v 73.6101 h -12.3013 z"
         style="fill:#ffffff;fill-opacity:1;fill-rule:nonzero;stroke:none;stroke-width:0.984502"
         id="path933" />
      <path
         d="m 1918.869,665.24921 c 2.4455,1.3546 5.1903,2.0329 8.2334,2.0329 2.6453,0 5.1095,-0.6113 7.3916,-1.8341 2.2811,-1.2247 4.2156,-3.0608 5.8036,-5.5063 l 9.4237,5.5555 c -1.9838,4.0336 -4.96,7.1091 -8.9275,9.2258 -3.9695,2.1157 -8.4992,3.175 -13.592,3.175 -5.5555,0 -10.4997,-1.1755 -14.8315,-3.5215 -4.3318,-2.3491 -7.7215,-5.5408 -10.1679,-9.5743 -2.4475,-4.0345 -3.6703,-8.7296 -3.6703,-14.0862 0,-5.2927 1.2228,-9.9701 3.6703,-14.038 2.4464,-4.067 5.8361,-7.2765 10.1679,-9.6226 4.3318,-2.349 9.276,-3.5225 14.8315,-3.5225 5.0928,0 9.6225,1.0751 13.592,3.2242 3.9675,2.1492 6.9437,5.209 8.9275,9.1776 l -9.4237,5.5545 c -1.588,-2.5134 -3.5225,-4.381 -5.8036,-5.6048 -2.2821,-1.2247 -4.7463,-1.8351 -7.3916,-1.8351 -3.0431,0 -5.7879,0.6774 -8.2334,2.034 -2.4475,1.3537 -4.3653,3.2892 -5.7544,5.8036 -1.3882,2.5125 -2.0832,5.4562 -2.0832,8.8291 0,3.3729 0.695,6.2988 2.0832,8.7787 1.3891,2.481 3.3069,4.3978 5.7544,5.7545"
         style="fill:#ffffff;fill-opacity:1;fill-rule:nonzero;stroke:none;stroke-width:0.984502"
         id="path935" />
      <path
         d="m 2014.3799,677.86371 h -14.8807 l -27.0503,-25.1167 v 44.3951 h -12.3013 v -73.6092 h 12.3013 v 13.9799 l 9.1342,8.7059 18.5441,-22.6858 h 14.9802 l -24.2798,30.7785 z"
         style="fill:#ffffff;fill-opacity:1;fill-rule:nonzero;stroke:none;stroke-width:0.984502"
         id="path937"
         sodipodi:nodetypes="ccccccccccccc" />
      <path
         d="m 2181.3792,635.93371 c -1.7849,-1.4561 -4.0355,-2.1827 -6.7468,-2.1827 -2.3805,0 -4.2323,0.6941 -5.5545,2.0832 -1.3242,1.3892 -1.9848,3.3395 -1.9848,5.8529 v 25.7187 h 14.2861 v 9.9208 h -14.2861 v 19.8121 h -12.3013 v -55.8484 c 0,-5.8203 1.587,-10.2348 4.762,-13.2435 3.175,-3.0106 7.6712,-4.5139 13.4916,-4.5139 2.1826,0 4.3318,0.2983 6.4485,0.8929 2.1157,0.5957 3.9341,1.4876 5.4571,2.6789 z"
         style="font-variation-settings:normal;vector-effect:none;fill:#ffffff;fill-opacity:1;fill-rule:nonzero;stroke:none;stroke-width:0.984502;stroke-linecap:butt;stroke-linejoin:miter;stroke-miterlimit:4;stroke-dasharray:none;stroke-dashoffset:0;stroke-opacity:1;-inkscape-stroke:none;stop-color:#000000"
         id="path939"
         sodipodi:nodetypes="cscsccccccccsccc" />
      <g
         aria-label="n"
         transform="matrix(1,0,0,-1,1483.1585,-1158.8214)"
         id="g943"
         style="font-size:103.999px;line-height:1.25;font-family:MuseoModerno;-inkscape-font-specification:'MuseoModerno, @wght=500';font-variation-settings:'wght' 500;vector-effect:none;fill:#ffffff;fill-opacity:1;stroke-width:1.0438;stop-color:#000000">
        <path
           d="m 565.10348,-1782.3542 v -30.5758 q 0,-6.8639 3.11997,-12.1678 3.11997,-5.408 8.83992,-8.424 5.71994,-3.1199 13.41587,-3.1199 7.69592,0 13.31187,3.1199 5.71995,3.016 8.83992,8.424 3.11997,5.3039 3.11997,12.1678 v 30.5758 h -11.85589 v -30.4718 q 0,-4.0559 -1.87198,-7.0719 -1.87198,-3.12 -4.99195,-4.7839 -3.01598,-1.768 -6.65594,-1.768 -3.53597,0 -6.65594,1.768 -3.01597,1.6639 -4.88795,4.7839 -1.76798,3.016 -1.76798,7.0719 v 30.4718 z"
           style="vector-effect:none;fill:#ffffff;fill-opacity:1;stop-color:#000000;stop-opacity:1"
           id="path941" />
      </g>
      <g
         id="g949"
         transform="translate(1456.2363,-878.83209)"
         style="fill:#ffffff;fill-opacity:1">
        <path
           d="m 569.29743,1502.3651 h 12.30134 v 54.3318 h -12.30134 z"
           style="font-variation-settings:normal;vector-effect:none;fill:#ffffff;fill-opacity:1;fill-rule:nonzero;stroke:none;stroke-width:0.984502;stroke-linecap:butt;stroke-linejoin:miter;stroke-miterlimit:4;stroke-dasharray:none;stroke-dashoffset:0;stroke-opacity:1;-inkscape-stroke:none;stop-color:#000000"
           id="path945"
           sodipodi:nodetypes="ccccc" />
        <circle
           style="font-variation-settings:normal;vector-effect:none;fill:#ffffff;fill-opacity:1;stroke:none;stroke-width:0.984502;stroke-linecap:butt;stroke-linejoin:miter;stroke-miterlimit:4;stroke-dasharray:none;stroke-dashoffset:0;stroke-opacity:1;-inkscape-stroke:none;stop-color:#000000"
           id="circle947"
           transform="scale(1,-1)"
           cx="575.44879"
           cy="-1569.8236"
           r="6.1506052" />
      </g>
      <g
         id="g955"
         transform="translate(1456.2361,-878.83209)"
         style="fill:#ffffff;fill-opacity:1">
        <path
           d="m 675.82733,1502.365 h 12.30134 v 54.3318 h -12.30134 z"
           style="font-variation-settings:normal;vector-effect:none;fill:#ffffff;fill-opacity:1;fill-rule:nonzero;stroke:none;stroke-width:0.984502;stroke-linecap:butt;stroke-linejoin:miter;stroke-miterlimit:4;stroke-dasharray:none;stroke-dashoffset:0;stroke-opacity:1;-inkscape-stroke:none;stop-color:#000000"
           id="path951"
           sodipodi:nodetypes="ccccc" />
        <circle
           style="font-variation-settings:normal;vector-effect:none;fill:#ffffff;fill-opacity:1;stroke:none;stroke-width:0.984502;stroke-linecap:butt;stroke-linejoin:miter;stroke-miterlimit:4;stroke-dasharray:none;stroke-dashoffset:0;stroke-opacity:1;-inkscape-stroke:none;stop-color:#000000"
           id="circle953"
           transform="scale(1,-1)"
           cx="681.9787"
           cy="-1569.8202"
           r="6.1506052" />
      </g>
      <circle
         style="font-variation-settings:normal;vector-effect:none;fill:#ffffff;fill-opacity:1;stroke:none;stroke-width:0.984502;stroke-linecap:butt;stroke-linejoin:miter;stroke-miterlimit:4;stroke-dasharray:none;stroke-dashoffset:0;stroke-opacity:1;-inkscape-stroke:none;stop-color:#000000"
         id="circle957"
         transform="scale(1,-1)"
         cx="2115.4866"
         cy="-629.70966"
         r="6.1506052" />
      <g
         id="g1017"
         transform="matrix(0.27971086,0,0,0.27971086,1318.8473,461.5232)"
         style="fill:#ffffff;fill-opacity:1">
        <rect
           style="font-variation-settings:normal;vector-effect:none;fill:#ffffff;fill-opacity:1;stroke:none;stroke-width:2.60978;stroke-linecap:butt;stroke-linejoin:miter;stroke-miterlimit:4;stroke-dasharray:none;stroke-dashoffset:0;stroke-opacity:1;-inkscape-stroke:none;stop-color:#000000"
           id="rect1011"
           width="64.588417"
           height="38.997017"
           x="1905.6937"
           y="-779.82025"
           transform="scale(1,-1)"
           ry="5.2897396" />
        <path
           id="path1013"
           style="font-variation-settings:normal;vector-effect:none;fill:#ffffff;fill-opacity:1;stroke:none;stroke-width:3.51973;stroke-linecap:butt;stroke-linejoin:miter;stroke-miterlimit:4;stroke-dasharray:none;stroke-dashoffset:0;stroke-opacity:1;-inkscape-stroke:none;stop-color:#000000"
           d="m 1937.988,773.56252 a 97.17956,97.17956 0 0 1 -97.1793,-97.17932 97.17956,97.17956 0 0 1 97.1793,-97.17924 97.17956,97.17956 0 0 1 97.1793,97.17924 97.17956,97.17956 0 0 1 -97.1793,97.17932 z m 0,-36.8746 a 60.304987,60.304987 0 0 0 60.3046,-60.30472 60.304987,60.304987 0 0 0 -60.3046,-60.30464 60.304987,60.304987 0 0 0 -60.3047,60.30464 60.304987,60.304987 0 0 0 60.3047,60.30472 z" />
        <path
           style="font-variation-settings:normal;opacity:1;fill:#ffffff;fill-opacity:1;stroke:none;stroke-width:4.30822;stroke-linecap:butt;stroke-linejoin:miter;stroke-miterlimit:4;stroke-dasharray:none;stroke-dashoffset:0;stroke-opacity:1;stop-color:#000000;stop-opacity:1"
           id="path1015"
           transform="scale(1,-1)"
           sodipodi:type="arc"
           sodipodi:cx="1937.9879"
           sodipodi:cy="-676.38354"
           sodipodi:rx="48.530983"
           sodipodi:ry="48.530983"
           sodipodi:start="4.712389"
           sodipodi:end="0"
           sodipodi:arc-type="slice"
           d="m 1937.9879,-724.91453 a 48.530983,48.530983 0 0 1 48.531,48.53099 h -48.531 z" />
      </g>
    </g>
  </g>
</svg>
